<svg xmlns="http://www.w3.org/2000/svg" viewBox="0 0 134.22 158.29"><defs><style>.cls-1{fill:#d0954e;}.cls-2{fill:#cb9a5d;}.cls-3{fill:#e7aa5b;}.cls-4{fill:#e9b16b;}.cls-5{fill:#eab16b;}.cls-6{fill:#c2853f;}.cls-7{fill:#f9f7ef;}.cls-8{fill:#4a2b11;}.cls-9{fill:#f86f82;}.cls-10{fill:#f4f1ea;}.cls-11{fill:#582d0a;}.cls-12{fill:none;stroke:#582d0a;stroke-miterlimit:10;stroke-width:2px;}</style></defs><g id="Layer_2" data-name="Layer 2"><g id="Layer_1-2" data-name="Layer 1"><path class="cls-1" d="M45.19,2.46C55.6-2.42,62.51,1.14,73.58,3.1c23.49,4.15,38.2,8.89,47.28,30,8.58,20,14.62,37,13.14,58.48a161.09,161.09,0,0,1-3.44,25.85c-4.75,20-17.68,32.43-37.77,36.93-18.12,4.06-38.68,6.58-54.32-.81,1.36.38-34-25.14-32.89-32.85-1.54-4.87-2.21-10-3.28-15-.43-5.27-.94-10.54-1.23-15.81C1,89,1.9,88,2.35,87c.25,1.69.61,3.37.72,5.07a88.32,88.32,0,0,0,6,28.16c3,7.27,12.12,9.6,18.57,14.31,9.09,6.63,14.48,13.89,25.45,14.37,13.69.6,27.4.87,40.86-3.39,12.72-4,22.12-11.72,27.73-23.48,5.23-10.93,6.68-23,6.93-35a229.54,229.54,0,0,0-.73-23.9c-1-12-7.66-19.72-12.93-30.61a91.65,91.65,0,0,0-8.89-14.76c-6.21-8.34-14.38-4.76-24.15-8C73.2,6.94,68.09.34,58.55,2.45c-4.4,1-8.89,1.56-13.34,2.32Z"/><path class="cls-2" d="M2.35,87C1.9,88,1,89,1.07,89.87c.29,5.27.8,10.54,1.23,15.81C1.68,100.84.75,96,.52,91.16-.16,77.31-.68,63.42,2.43,49.74,6,34,26.61,13,36.63,6.52c2.63-1.7,5.7-2.72,8.56-4.06,0,.77,0,1.54,0,2.31l-1.44.69-1.5.78c-4.76,3.26-7,6-11.17,9.91-4.51,4.19-5.21,3.33-8.5,8.53C13.46,39.17,3,51,2.39,68.07,2.18,74.39,2.35,80.72,2.35,87Z"/><path class="cls-3" d="M43.77,5.46l1.44-.69C49.66,4,54.15,3.43,58.55,2.45,68.09.34,73.2,6.94,81.91,9.83c9.77,3.25,17.94-.33,24.15,8A91.65,91.65,0,0,1,115,32.6c5.27,10.89,11.92,18.61,12.93,30.61a229.54,229.54,0,0,1,.73,23.9c-.25,12-1.7,24-6.93,35-5.61,11.76-15,19.46-27.73,23.48-13.46,4.26-27.17,4-40.86,3.39-11-.48-16.36-7.74-25.45-14.37-6.45-4.71-15.6-7-18.57-14.31a88.32,88.32,0,0,1-6-28.16C3,90.41,2.6,88.73,2.35,87c0-6.32-.17-12.65,0-19C3,51,13.46,39.17,22.6,24.68c3.29-5.2,4-4.34,8.5-8.53,4.18-3.88,6.41-6.65,11.17-9.91ZM57,132.1c.83-.48,1.63-1.29,2.51-1.4,6.51-.84,13.17-.94,19.51-2.46,5.9-1.41,12-3.4,17-6.75,5.2-3.52,9-9,11.24-15.22,2.69-.91,5.33-2,8.07-2.7,3.63-.95,2.74-3.91,1.77-5.49s-3.54-2.47-5.41-3.64a64.46,64.46,0,0,0,1.42-6.35c.27-2.06,0-4.19.22-6.25a96.08,96.08,0,0,0-1.7-32c-.35-1.63-1.18-3.19-1.38-4.83-.87-7.06-7-9.62-11.19-15.45-2-2.75-3.8-5.63-5.7-8.45-.67-1-2.05-1.47-3.05-2.39-3.94-3.66-8.25,3.4-13.36,1.55-8-2.89-12.14-9-20.77-7.45a72.93,72.93,0,0,0-7.34,1.52C45.18,15.4,44.36,16.25,41,18c-8.71,4.49-15.32,1.51-20.88,9.38a45.14,45.14,0,0,0-5.78,11.91C12.77,44.07,9.1,49.17,8,54.14c-.33,1.51-1.12,3-1.15,4.49q-.2,9.6,0,19.19A14.07,14.07,0,0,0,8,81.73a17.33,17.33,0,0,0-1.16,4c-.18,6.87,2.3,13.16,4.29,19.59-3.68-11.88,30.46,28,19,21.52A33.87,33.87,0,0,0,51.58,131c.28,0,.68.77,1,1.19.94,2.63,4.48,3.1,7.73.51Zm35.85-1.47.15.94h7.43l0-.94ZM72.59,145.06h8C78.14,142.59,75,142.59,72.59,145.06Z"/><path class="cls-1" d="M43.77,5.46l-1.5.78Z"/><path class="cls-4" d="M107.27,106.27c-2.28,6.17-6,11.7-11.24,15.22-5,3.35-11.09,5.34-17,6.75-6.34,1.52-13,1.62-19.51,2.46-.88.11-1.68.92-2.51,1.4l-4.41.07c-.35-.42-.75-1.23-1-1.19a33.87,33.87,0,0,1-21.46-4.17c11.47,6.45-22.67-33.4-19-21.52-2-6.43-4.47-12.72-4.29-19.59a17.33,17.33,0,0,1,1.16-4,14.07,14.07,0,0,1-1.15-3.91q-.21-9.58,0-19.19c0-1.5.82-3,1.15-4.49,1.1-5,4.77-10.07,6.35-14.88a45.14,45.14,0,0,1,5.78-11.91C25.69,19.48,32.3,22.46,41,18c3.35-1.72,4.17-2.57,7.84-3.62a72.93,72.93,0,0,1,7.34-1.52c8.63-1.55,12.73,4.56,20.77,7.45,5.11,1.85,9.42-5.21,13.36-1.55,1,.92,2.38,1.42,3.05,2.39,1.9,2.82,3.71,5.7,5.7,8.45C103.28,35.4,109.39,38,110.26,45c.2,1.64,1,3.2,1.38,4.83a96.08,96.08,0,0,1,1.7,32c-.26,2.06,0,4.19-.22,6.25a64.46,64.46,0,0,1-1.42,6.35l-4.43,0c-3,.66-6.11,1.24-9.13,2-2.81.73-4.15,2.4-2.7,5.38,1.08,1,2,2.44,3.26,2.81A74,74,0,0,0,107.27,106.27ZM52.58,84.05l0,.07c2.37-5.46,2.16-10.69-1.38-15.62-4.56-10-13.29-9.86-18.53-3.47-2.06,2.52-3.24,6-4,9.31C26.85,82,30.05,90,35.8,93.38c4.45,2.65,10.56,1.35,12.31-2.61l2.62-3ZM83,87c3,6.72,8.4,9.45,14.22,7.25a11.53,11.53,0,0,0,7-7.27c.33-.17.83-.26,1-.52,2.83-6.06.93-17.14-3.74-22.12-5-5.36-12.9-4.63-17,1.49C79.87,72.68,79.55,79.71,83,87ZM17.52,99.64c4.22,6.58,15,6.08,20.09,3,2.39-1.42,2.29-4.52,0-6.15C32.47,92.82,21.76,94.4,17.52,99.64ZM66.4,95.88c4.92,0,8.52-2,10.51-5.78.5-.94.2-2.3.27-3.47a11.26,11.26,0,0,0-2.57,1.94c-4.14,5.57-9.43,6-14.24,1-.42-.44-.7-1.1-1.2-1.37A8.81,8.81,0,0,0,57,87.6c0,.76-.38,1.75,0,2.24C59.52,93.39,62.84,95.71,66.4,95.88ZM47.77,53.32a11.9,11.9,0,0,0-13-1.15c-1.58.87-2.77,2.46-4.14,3.72l.78,1.25C36.14,52.51,41.83,52.43,47.77,53.32Zm56.82,3.3c-3.48-6.32-12.46-7.93-16.44-3.14C94.14,52.55,99.77,52.39,104.59,56.62Z"/><path class="cls-5" d="M107.27,94.46l4.43,0c1.87,1.17,4.38,2,5.41,3.64s1.86,4.54-1.77,5.49c-2.74.71-5.38,1.79-8.07,2.7a74,74,0,0,1-8.57-1.6c-1.25-.37-2.18-1.84-3.26-2.81,5.51,2,11,3.79,16.89,1.35,1.7-.72,4.5-1.09,3.6-3.63-.54-1.53-2.72-2.63-4.36-3.6A22.57,22.57,0,0,0,107.27,94.46Z"/><path class="cls-6" d="M92.87,130.63h7.54l0,.94H93Z"/><path class="cls-6" d="M72.59,145.06c2.43-2.47,5.55-2.47,8,0Z"/><path class="cls-6" d="M52.61,132.17,57,132.1l3.32.58C57.09,135.27,53.55,134.8,52.61,132.17Z"/><path class="cls-7" d="M48.11,90.77c-1.75,4-7.86,5.26-12.31,2.61C30.05,90,26.85,82,28.64,74.34c.75-3.26,1.93-6.79,4-9.31,5.24-6.39,14-6.51,18.53,3.47-.23.76-.45,1.52-.68,2.28-4.54-4.6-7.11-5-11.43-1.5a7.83,7.83,0,0,1,2.12.73,29.33,29.33,0,0,1,2.59,2.28c-1,.77-1.88,1.95-3,2.22a22.06,22.06,0,0,1-5,.09,15.78,15.78,0,0,0,.69,12C38.85,91.9,43.11,93.34,48.11,90.77Z"/><path class="cls-8" d="M48.11,90.77c-5,2.57-9.26,1.13-11.67-4.17a15.78,15.78,0,0,1-.69-12,22.06,22.06,0,0,0,5-.09c1.11-.27,2-1.45,3-2.22A29.33,29.33,0,0,0,41.17,70a7.83,7.83,0,0,0-2.12-.73c4.32-3.49,6.89-3.1,11.43,1.5C52.8,75,53,79.5,52.54,84.12l0-.07c-.62,1.25-1.24,2.5-1.85,3.76Z"/><path class="cls-7" d="M83,87c-3.41-7.32-3.09-14.35,1.43-21.17,4.06-6.12,11.93-6.85,17-1.49,4.67,5,6.57,16.06,3.74,22.12-.12.26-.62.35-1,.52l-2.78-1.4c1.29-5.27,1.49-10.44-1.86-15.12-2.93-4.11-7.11-4.56-10.85-1.12a6.13,6.13,0,0,1,1.77.58c1,.73,1.89,1.61,2.82,2.43-1.13.77-2.17,1.89-3.42,2.23-1.44.39-3.08.09-5.41.09.27,3.77.52,7.24.77,10.71Z"/><path class="cls-9" d="M17.52,99.64c4.24-5.24,15-6.82,20.11-3.12,2.27,1.63,2.37,4.73,0,6.15C32.48,105.72,21.74,106.22,17.52,99.64Z"/><path class="cls-9" d="M107.27,94.46a22.57,22.57,0,0,1,4.3,1.52c1.64,1,3.82,2.07,4.36,3.6.9,2.54-1.9,2.91-3.6,3.63-5.84,2.44-11.38.62-16.89-1.35-1.45-3-.11-4.65,2.7-5.38C101.16,95.7,104.23,95.12,107.27,94.46Z"/><path class="cls-4" d="M66.4,95.88c-3.56-.17-6.88-2.49-9.41-6-.35-.49,0-1.48,0-2.24a8.81,8.81,0,0,1,2.15.55c.5.27.78.93,1.2,1.37,4.81,5,10.1,4.62,14.24-1a11.26,11.26,0,0,1,2.57-1.94c-.07,1.17.23,2.53-.27,3.47C74.92,93.87,71.32,95.91,66.4,95.88Z"/><path class="cls-10" d="M83,87l2.22-1.62c.44.72.88,1.43,1.31,2.15,3.6,6,9.46,6.21,13.38.52.55-.79,1-1.64,1.49-2.47l2.78,1.4a11.53,11.53,0,0,1-7,7.27C91.36,96.48,85.93,93.75,83,87Z"/><path class="cls-6" d="M47.77,53.32c-5.94-.89-11.63-.81-16.4,3.82l-.78-1.25C32,54.63,33.15,53,34.73,52.17A11.9,11.9,0,0,1,47.77,53.32Z"/><path class="cls-6" d="M104.59,56.62c-4.82-4.23-10.45-4.07-16.44-3.14C92.13,48.69,101.11,50.3,104.59,56.62Z"/><path class="cls-10" d="M52.54,84.12C53,79.5,52.8,75,50.48,70.78c.23-.76.45-1.52.68-2.28C54.7,73.43,54.91,78.66,52.54,84.12Z"/><path class="cls-10" d="M50.73,87.81c.61-1.26,1.23-2.51,1.85-3.76C52,85.3,51.34,86.55,50.73,87.81Z"/><path class="cls-8" d="M101.36,85.61c-.5.83-.94,1.68-1.49,2.47-3.92,5.69-9.78,5.45-13.38-.52-.43-.72-.87-1.43-1.31-2.15-.25-3.47-.5-6.94-.77-10.71,2.33,0,4,.3,5.41-.09,1.25-.34,2.29-1.46,3.42-2.23-.93-.82-1.82-1.7-2.82-2.43a6.13,6.13,0,0,0-1.77-.58c3.74-3.44,7.92-3,10.85,1.12C102.85,75.17,102.65,80.34,101.36,85.61Z"/><path class="cls-11" d="M72.28,97.68a7.06,7.06,0,0,1,3.32-5.17c.27-.19.81,0,1.23,0a5.11,5.11,0,0,1-.3,1.18c-.15.27-.51.43-.76.66C73,97,73.23,99.92,76.3,102.2a6.13,6.13,0,0,1,1.06,1.41,5,5,0,0,1-1.91-.15A6,6,0,0,1,72.28,97.68Z"/><path class="cls-11" d="M61,98.84A7.06,7.06,0,0,1,57.66,104c-.27.19-.81,0-1.23,0a4.62,4.62,0,0,1,.3-1.19c.15-.27.51-.42.75-.66C60.24,99.51,60,96.6,57,94.33a6.41,6.41,0,0,1-1.06-1.42,5,5,0,0,1,1.91.15A6.05,6.05,0,0,1,61,98.84Z"/><line class="cls-12" x1="60.98" y1="98.84" x2="73.17" y2="98.84"/></g></g></svg>