<svg xmlns="http://www.w3.org/2000/svg" viewBox="0 0 135.1 169.37"><defs><style>.cls-1{fill:#d0944d;}.cls-2{fill:#cb9a5d;}.cls-3{fill:#e7aa5c;}.cls-4{fill:#e9b16b;}.cls-5{fill:#f86f82;}.cls-6{fill:#c2853f;}.cls-7{fill:#582d0a;}.cls-8{fill:#eab16b;}</style></defs><g id="Layer_2" data-name="Layer 2"><g id="Layer_1-2" data-name="Layer 1"><path class="cls-1" d="M3,117.37,2.53,115q.26-5.88.52-11.78c1.22,6.31,2.42,12.62,3.67,18.93,3.25,16.45,12.15,28.44,28.11,34.35,17.08,6.31,34.66,5.36,52.26,2.59A52.9,52.9,0,0,0,109,150.42c-13.9,9.61,18-30.81,16.63-25.41,4.34-16.71,4.52-33.67,3-50.73-1.6-18-7.36-34.58-18.18-49.15A50,50,0,0,0,85.82,7.41C72.38,2.92,67.65,2.47,54.1,7.62A10.87,10.87,0,0,1,52,8c1.59-1-2.85-2-1.23-3C52.78,3.85,54.88,2.73,57,1.58,72.4-1.71,84.12,0,97.93,8c11.93,6.87,20.14,17.08,26,29.32,9.89,20.75,12.35,42.85,10.78,65.44a162.74,162.74,0,0,1-4.14,28.71c-3.7,14.53-37.67,34.89-36.77,34.69-19.37,4.4-38.89,4.84-57.84-1.79-14-4.91-23.86-14.67-28.5-29.15C6.36,129.43,5.3,123.69,4.17,118,4.12,117.69,3.37,117.56,3,117.37Z"/><path class="cls-2" d="M57,1.58C54.88,2.73,52.78,3.85,50.72,5,49.1,6,53.54,7,52,8h0L49,9.47a45.69,45.69,0,0,1-3.74,2.95A63.75,63.75,0,0,0,23.06,36.71C15.43,51.21-.39,66.81,0,83.33c.16,6.64,3,13.29,3,19.93q-.27,5.89-.52,11.78c-.46-3.63-1.18-7.25-1.35-10.89C.42,87.8,6,71.45,10.58,55.47A82,82,0,0,1,46.73,8.14C51.64,5.14,51.53,3.72,57,1.58Z"/><path class="cls-2" d="M3,117.37c.42.19,1.17.32,1.22.59,1.13,5.73,2.19,11.47,3.25,17.21Z"/><path class="cls-3" d="M3.05,103.26C3,96.62.17,90,0,83.33c-.4-16.52,15.42-32.12,23-46.62A63.75,63.75,0,0,1,45.21,12.42,45.69,45.69,0,0,0,49,9.47l3-1.46h0a10.87,10.87,0,0,0,2.15-.38c13.55-5.15,18.28-4.7,31.72-.21a50,50,0,0,1,24.65,17.72c10.82,14.57,16.58,31.12,18.18,49.15,1.51,17.06,1.33,34-3,50.73,1.41-5.4-16.34,30.14-17,28-6.54,4.53-13.59,4.85-21.54,6.11-17.6,2.77-35.18,3.72-52.26-2.59-16-5.91-24.86-17.9-28.11-34.35C5.47,115.88,4.27,109.57,3.05,103.26ZM109.41,113c3.18,0,6.49.48,9.49-.27,2-.49,4.41-2.51,5-4.35.69-2.31-2-2.7-4-3a27.94,27.94,0,0,1-4.54-1.4l-2.2-2.09c3.8-3.53-3.77-3.45-2.37-6.56l5.78-.29c-.82-1.4-1.79-2.33-1.87-3.33-.84-10.57-1.14-21.2-2.46-31.71a44.2,44.2,0,0,0-5-14.71c-1-1.93-2.11-3.49-2.27-5.77a9.26,9.26,0,0,0-1.67-4.5c-1.08-1.5-3-2.44-4-3.94A37.25,37.25,0,0,0,83.28,18.56a57.31,57.31,0,0,0-14.23-3.62c-7.17-1.08-14.41-1.55-21.35,1.63-3.69,1.69,1.49,3.12-2.27,4.65-1.3.53-2.86.72-3.87,1.57a45.85,45.85,0,0,0-4.73,5.1c-3.52,4.1-7.45,8-10.36,12.46-2.41,3.74-3.73,8.22-5.31,12.46C19.46,57.36,4.69,61.69,5.89,67A3.32,3.32,0,0,1,5.3,69C1,76.65,6.79,84.75,6,92.52l4,.85c-.88.82-1.85.78-2.58,1.18a4.07,4.07,0,0,0-1.23,1.71c2.69,2.16,1,5.43,2.09,8,1.6,4,2.4,8.24,3.81,12.29a36.57,36.57,0,0,0,3.64,7.81c2,3.08,4.07,6.4,6.9,8.59,4.06,3.14,8.58,6.14,13.38,7.74,5.18,1.73,10.92,1.78,16.41,2.6.32,0,.58.41.87.63.33.72.89,2.08.95,2.06,2.11-.77,5.46,2.15,6.41-2.05.45-.49.86-1.36,1.36-1.42,4.81-.61,9.71-.74,14.45-1.68,5.26-1,10.38-2.75,15.56-4.18a1.6,1.6,0,0,0,.62-.38c3.27-2.82,5.8-6.59,10.43-7.65.72-.16,1.33-1.42,1.7-2.3,1.39-3.31,2.66-6.67,4-10.08l-1.93-1.18.19-.66h9V114ZM81.14,156.67v-1.08H73.4v1.08Zm19.7-13.13.1-1a8.3,8.3,0,0,0-7.37,0v1.07Z"/><path class="cls-1" d="M51.93,8,49,9.47Z"/><path class="cls-4" d="M53.28,144c-.29-.22-.55-.59-.87-.63-5.49-.82-11.23-.87-16.41-2.6-4.8-1.6-9.32-4.6-13.38-7.74-2.83-2.19-4.89-5.51-6.9-8.59a36.57,36.57,0,0,1-3.64-7.81c-1.41-4-2.21-8.33-3.81-12.29-1-2.62.6-5.89-2.09-8a4.07,4.07,0,0,1,1.23-1.71c.73-.4,1.7-.36,2.58-1.18l-4-.85C6.79,84.75,1,76.65,5.3,69A3.32,3.32,0,0,0,5.89,67c-1.2-5.26,13.57-9.59,15.27-14.14,1.58-4.24,2.9-8.72,5.31-12.46,2.91-4.51,6.84-8.36,10.36-12.46a45.85,45.85,0,0,1,4.73-5.1c1-.85,2.57-1,3.87-1.57,3.76-1.53-1.42-3,2.27-4.65,6.94-3.18,14.18-2.71,21.35-1.63a57.31,57.31,0,0,1,14.23,3.62A37.25,37.25,0,0,1,99.21,31.05c1.07,1.5,2.94,2.44,4,3.94a9.26,9.26,0,0,1,1.67,4.5c.16,2.28,1.24,3.84,2.27,5.77a44.2,44.2,0,0,1,5,14.71c1.32,10.51,1.62,21.14,2.46,31.71.08,1,1,1.93,1.87,3.33l-5.78.29c-1.4,3.11,6.17,3,2.37,6.56l2.2,2.09-11.07,1.58c-3.09,1.08-3.1,2.39-.21,8.12l4.59-.74.78,0L116,114v.42h-9l-.19.66,1.93,1.18c-1.34,3.41-2.61,6.77-4,10.08-.37.88-1,2.14-1.7,2.3-4.63,1.06-7.16,4.83-10.43,7.65a1.6,1.6,0,0,1-.62.38c-5.18,1.43-10.3,3.15-15.56,4.18-4.74.94-9.64,1.07-14.45,1.68-.5.06-.91.93-1.36,1.42ZM21.75,113.71c3.49-.87,6.64-1.26,9.43-2.47,2.09-.91,2-4.75.13-5.45-5.88-2.16-11.84-2.69-17.7.08-2.09,1-2.46,3.9-.39,5C15.86,112.25,19,112.82,21.75,113.71ZM99,87.29c-2,1-4.33,1.61-5.84,3a67,67,0,0,0-7.21,8.27c-.54.7-.24,2.06-.32,3.12a10.51,10.51,0,0,0,2.55-1.5c2.33-2.48,4.3-5.38,6.86-7.59,3.58-3.09,6.19-2.56,8.77,1.48,1.17,1.82,1.72,4,2.72,6,.37.72,1.22,1.18,1.85,1.76.32-.81,1.14-1.88.88-2.4a72.7,72.7,0,0,0-5.52-9.78C102.88,88.46,100.81,88.15,99,87.29Zm-60.46.55c-6.44-.06-12.9,7.81-12.11,12.63.09.5.69,1.32,1,1.29a2.33,2.33,0,0,0,1.67-1c.64-1.32.9-2.81,1.5-4.15,3.14-7,7.26-7.78,12.57-2.17,1.85,2,3.23,4.33,5,6.36.47.53,1.6.47,2.43.68-.05-.77.16-1.72-.21-2.27a31.9,31.9,0,0,0-4.67-6.13A70.48,70.48,0,0,0,38.53,87.84Zm29.41,30.91a10.64,10.64,0,0,0,9.25-5.43c.61-1,.54-2.38.78-3.58-1,.61-2.22,1-2.88,1.86-3.77,4.93-8.46,5.64-12.92,1.75-.73-.63-1.23-1.55-2-2.13a8.11,8.11,0,0,0-2.12-.85c0,.87-.41,2,0,2.55A12.82,12.82,0,0,0,67.94,118.75Zm-37.16-43c4.93-3.58,10.36-4.3,16.19-3A10.45,10.45,0,0,0,30.78,75.76ZM89.2,72.69c5.89-1.6,11.12.21,16.91,3.79C102.17,69.89,94.09,68.4,89.2,72.69Z"/><path class="cls-5" d="M104.25,105.53,115.32,104a27.94,27.94,0,0,0,4.54,1.4c2,.29,4.69.68,4,3-.55,1.84-3,3.86-5,4.35-3,.75-6.31.24-9.49.27l-.78,0C105.45,111.47,103.21,109.47,104.25,105.53Z"/><ellipse class="cls-6" cx="77.27" cy="156.13" rx="5.48" ry="0.76"/><path class="cls-6" d="M53.28,144h7.36c-1,4.2-4.3,1.28-6.41,2.05C54.17,146.05,53.61,144.69,53.28,144Z"/><path class="cls-6" d="M100.84,143.54H93.57v-1.07a8.3,8.3,0,0,1,7.37,0Z"/><path class="cls-5" d="M21.75,113.71c-2.8-.89-5.89-1.46-8.53-2.85-2.07-1.09-1.7-4,.39-5,5.86-2.77,11.82-2.24,17.7-.08,1.9.7,2,4.54-.13,5.45C28.39,112.45,25.24,112.84,21.75,113.71Z"/><path class="cls-7" d="M99,87.29c1.82.86,3.89,1.17,4.74,2.36a72.7,72.7,0,0,1,5.52,9.78c.26.52-.56,1.59-.88,2.4-.63-.58-1.48-1-1.85-1.76-1-1.95-1.55-4.16-2.72-6-2.58-4-5.19-4.57-8.77-1.48-2.56,2.21-4.53,5.11-6.86,7.59a10.51,10.51,0,0,1-2.55,1.5c.08-1.06-.22-2.42.32-3.12a67,67,0,0,1,7.21-8.27C94.66,88.9,96.94,88.31,99,87.29Z"/><path class="cls-7" d="M38.53,87.84a70.48,70.48,0,0,1,7.15,5.27,31.9,31.9,0,0,1,4.67,6.13c.37.55.16,1.5.21,2.27-.83-.21-2-.15-2.43-.68-1.77-2-3.15-4.41-5-6.36-5.31-5.61-9.43-4.86-12.57,2.17-.6,1.34-.86,2.83-1.5,4.15a2.33,2.33,0,0,1-1.67,1c-.28,0-.88-.79-1-1.29C25.63,95.65,32.09,87.78,38.53,87.84Z"/><path class="cls-7" d="M67.94,118.75A12.82,12.82,0,0,1,58,112.92c-.39-.58,0-1.68,0-2.55a8.11,8.11,0,0,1,2.12.85c.77.58,1.27,1.5,2,2.13,4.46,3.89,9.15,3.18,12.92-1.75.66-.85,1.91-1.25,2.88-1.86-.24,1.2-.17,2.61-.78,3.58A10.64,10.64,0,0,1,67.94,118.75Z"/><path class="cls-6" d="M30.78,75.76a10.45,10.45,0,0,1,16.19-3C41.14,71.46,35.71,72.18,30.78,75.76Z"/><path class="cls-6" d="M89.2,72.69c4.89-4.29,13-2.8,16.91,3.79C100.32,72.9,95.09,71.09,89.2,72.69Z"/><path class="cls-8" d="M104.25,105.53c-1,3.94,1.2,5.94,4.38,7.38l-4.59.74C101.15,107.92,101.16,106.61,104.25,105.53Z"/></g></g></svg>