<svg xmlns="http://www.w3.org/2000/svg" viewBox="0 0 133.46 169.39"><defs><style>.cls-1{fill:#d0954e;}.cls-2{fill:#d0954f;}.cls-3{fill:#cb9a5d;}.cls-4{fill:#e7aa5c;}.cls-5{fill:#e9b16b;}.cls-6{fill:#f86f82;}.cls-7{fill:#eab16b;}.cls-8{fill:#c2853f;}.cls-9{fill:#582d0a;}.cls-10{fill:#efbc7d;}</style></defs><g id="Layer_2" data-name="Layer 2"><g id="Layer_1-2" data-name="Layer 1"><path class="cls-1" d="M96.62,20.72c11.26,8.89,14.68,21,19.08,34.23,7,21.26,19.79,37.12,17.49,59.21-.95,9.09-2.79,17.93-6.7,26.24-6.47,13.72-17.52,21.93-32,25.36-20.31,4.82-40.67,5.43-60.61-1.8a42.37,42.37,0,0,1-22.25-19.29c.29-2.48-.1-4.58-3-5.31A.22.22,0,0,1,8.6,139c-.23-1.39-.44-2.78-.69-4.16-.44-2.45-.9-4.89-1.36-7.34.7,1,1.5,2,2.1,3.11,2.11,3.82,3.64,8.09,6.32,11.45,7,8.75,16.34,15.3,27.24,17.29,16.54,3,33.21,2.91,49.57-1.38,13.25-3.47,23.82-10.81,29.59-23.66a80.08,80.08,0,0,0,6.9-32.08c.13-11.5-3.61-23-4.4-34.51-.76-11-11.1-15.1-15.77-24.8A63.32,63.32,0,0,0,86.9,18.58l-1.46-.77-3-1.49c2.39-1.09,5.2-2.8,6.87.46S93.65,20.43,96.62,20.72Z"/><path class="cls-2" d="M96.62,20.72c-3-.29-5.61-.68-7.27-3.94s-4.48-1.55-6.87-.46c-2.86-1.05-5.74-2-8.56-3.16-9.38-3.71-8.19-9.71-17.76-8C49.7,6.32,43.6,9.53,37.34,11.82c0-.77-.05-1.54-.07-2.32l0,.05.8-.69C48.07,2.13,57.18-.56,69.11.09c13,.72,16,10.38,26.12,19A12.94,12.94,0,0,1,96.62,20.72Z"/><path class="cls-3" d="M37.27,9.5c0,.78,0,1.55.07,2.32h0l-4.42,3h0l-1.49,1.44c-1.26,1.48-2.54,2.95-3.79,4.45C24,25.05,19.67,29,16.92,33.91,8,49.72,1.6,66.84,2.09,85.09c.21,7.58.49,15.17.74,22.75l-.21,12.91c-.75-5-1.87-9.88-2.21-14.86-1.5-22,.94-43.74,10.33-64.31,5.43-11.9,12.79-22.34,23.34-30.29A25.38,25.38,0,0,1,37.27,9.5Z"/><path class="cls-3" d="M6.55,127.51c.46,2.45.92,4.89,1.36,7.34.25,1.38.46,2.77.69,4.16q-2.86-8.69-5.72-17.38A17,17,0,0,0,4.33,124a21.23,21.23,0,0,0,2.19,2Z"/><path class="cls-1" d="M6.52,126.07a21.23,21.23,0,0,1-2.19-2,17,17,0,0,1-1.45-2.4c-.09-.63-.17-.25-.25-.88q.09-6.45.2-12.91C4.06,114.25,5.29,119.66,6.52,126.07Z"/><path class="cls-3" d="M8.68,139.36c2.85.73,3.24,2.83,3,5.31Q10.15,142,8.68,139.36Z"/><path class="cls-3" d="M38.05,8.86l-.8.69Z"/><path class="cls-4" d="M6.52,126.07c-1.23-6.41-2.46-11.82-3.69-18.23-.25-7.58-.53-15.17-.74-22.75C1.6,66.84,8,49.72,16.92,33.91,19.67,29,24,25.05,27.63,20.68c1.25-1.5,2.53-3,3.79-4.45l1.49-1.44h0l4.42-3h0C43.6,9.53,49.7,6.32,56.16,5.16c9.57-1.71,8.38,4.29,17.76,8,2.82,1.12,5.7,2.11,8.56,3.16l3,1.49,1.46.77a63.32,63.32,0,0,1,21.2,24.35c4.67,9.7,15,13.81,15.77,24.8.79,11.48,4.53,23,4.4,34.51a80.08,80.08,0,0,1-6.9,32.08C115.6,147.17,105,154.51,91.78,158c-16.36,4.29-33,4.39-49.57,1.38-10.9-2-20.26-8.54-27.24-17.29-2.68-3.36-4.21-7.63-6.32-11.45-.6-1.09-1.4-2.08-2.1-3.11ZM115.1,94.52l-1.45-1.47c-.25-7.6-.2-15.22-.85-22.79-.5-5.87-9.57-6.37-12.23-11.3-2.74-5.11-2.2-11.32-6.47-15.74-2.42-2.51-3.6-6.31-6.18-8.57-4.94-4.32-10.47-8-15.77-11.87a3.23,3.23,0,0,0-1.36-.49c-3.7-.52,1.6-7.38-2.11-7.45-11-.22-20-.67-29.79,5.72-7,4.6-14.35,8.88-18.21,17-1.35,2.82-3.24,5.39-4.63,8.2a84.73,84.73,0,0,0-3.8,9.07A25.15,25.15,0,0,1,7.7,62.84a6.05,6.05,0,0,0-1.91,5c0,5.6-.27,11.22.1,16.79.21,3.12-2.22,7.25,2.54,9.26.13.06-.48,1.47-.48,2.25,0,4.17-.64,8.52.37,12.44.67,2.61,2.14,5,1.92,7.91-.14,1.91,0,2.85,0,4.21,1.88.91,3.84,1.2,4.22,2.14a24.87,24.87,0,0,0,11.82,12.89c4.35,2.29,8.54,6,13.8,6.27,4.13.25,8.21,1.37,12.32,2.1-.27,3,2,2.18,3.46,2.11s4,1.14,3.83-2.12c.45-.41.85-1.11,1.35-1.19,4.07-.66,8.17-1.69,12.26-1.68,8.06,0,14.75-3.78,21.24-7.51,8.24-4.72,12.47-13,15.84-21.55.13-.34.17-.72.28-1.06q1.5-4.58,3-9.14C119.3,98.5,119.58,97.07,115.1,94.52ZM79.88,156.78c-2.31-2.28-4.85-1.73-7.4-1.14l-.07,1.14Zm20.28-13.26v-1.05h-7v1.05Z"/><path class="cls-2" d="M86.9,18.58l-1.46-.77Z"/><path class="cls-2" d="M37.34,11.82l-4.42,3Z"/><path class="cls-2" d="M32.91,14.79l-1.49,1.44Z"/><path class="cls-5" d="M113.65,101.94q-1.5,4.57-3,9.14c-.11.34-.15.72-.28,1.06-3.37,8.59-7.6,16.83-15.84,21.55-6.49,3.73-13.18,7.54-21.24,7.51-4.09,0-8.19,1-12.26,1.68-.5.08-.9.78-1.35,1.19H52.38c-4.11-.73-8.19-1.85-12.32-2.1-5.26-.31-9.45-4-13.8-6.27a24.87,24.87,0,0,1-11.82-12.89c-.38-.94-2.34-1.23-4.22-2.14,0-1.36-.12-2.3,0-4.21.22-2.9-1.25-5.3-1.92-7.91-1-3.92-.38-8.27-.37-12.44,0-.78.61-2.19.48-2.25-4.76-2-2.33-6.14-2.54-9.26-.37-5.57-.12-11.19-.1-16.79a6.05,6.05,0,0,1,1.91-5,25.15,25.15,0,0,0,4.55-8.06,84.73,84.73,0,0,1,3.8-9.07c1.39-2.81,3.28-5.38,4.63-8.2,3.86-8.07,11.16-12.35,18.21-16.95,9.8-6.39,18.84-5.94,29.79-5.72,3.71.07-1.59,6.93,2.11,7.45a3.23,3.23,0,0,1,1.36.49c5.3,3.9,10.83,7.55,15.77,11.87,2.58,2.26,3.76,6.06,6.18,8.57,4.27,4.42,3.73,10.63,6.47,15.74,2.66,4.93,11.73,5.43,12.23,11.3.65,7.57.6,15.19.85,22.79l-9.3-1.68c-1-3-1.5-6.36-3.09-9-2.55-4.33-6.67-5.11-10.62-2-3,2.39-5.33,5.65-7.83,8.62-.37.45,0,1.49,0,2.26.71-.26,1.66-.31,2.09-.81,1.42-1.67,2.53-3.62,4-5.25,5.28-5.89,9.56-5,12.33,2.42a37,37,0,0,0,2.09,4l-4.44,5.06c.31,3.38,2.49,4.91,5.57,5.13S110.58,101.93,113.65,101.94Zm-35.49,5.14h0l.76-.74,0,0,.75-1.55.55-.71c3.4-.81,2.48-3.51,2.28-5.68C82.24,95.92,80.23,96,78.3,96c-6.88,0-13.77-.11-20.64.08a72.26,72.26,0,0,0-8.76,1.27c.69,2,1.08,3.23,1.55,4.45,1.7,4.43,4,6.59,7.09,6.69l5.66,1.6A12.47,12.47,0,0,0,76,107.87l0,0,1.31,0Zm-52.72-4.59.14-.58c1.6,0,3.32.37,4.77-.1a14.07,14.07,0,0,0,4.75-2.93c.36-.33-.09-2.14-.67-2.89-3.26-4.16-14.51-4.16-18,.4-1.32,1.75-1.17,3.29,1,4C20.11,101.23,22.79,101.8,25.44,102.49ZM52.22,90.73C50.29,88.11,49,86,47.38,84.2c-2.69-3.09-5.59-6.25-10.23-5.35s-6,5-7.47,8.83a1.59,1.59,0,0,0-.2.71c.09,1,.24,2,.37,3A21.52,21.52,0,0,0,32,89.08,10.4,10.4,0,0,0,32.74,87c2.84-6.67,6.61-7.48,11.61-2.31,1.69,1.75,2.93,3.93,4.49,5.82a3,3,0,0,0,1.8.8C51.07,91.38,51.55,91,52.22,90.73ZM47.34,63.82C43.15,61,35,62.86,34,66.82Zm53.18,2.48c-1.83-3.95-9.66-5.28-12.4-2.37Z"/><path class="cls-6" d="M113.65,101.94c-3.07,0-6.16.14-9.22-.08s-5.26-1.75-5.57-5.13c5-4,10.57-3.34,16.24-2.21C119.58,97.07,119.3,98.5,113.65,101.94Z"/><path class="cls-7" d="M115.1,94.52c-5.67-1.13-11.28-1.83-16.24,2.21l4.44-5.06,1-.3,9.3,1.68Z"/><path class="cls-8" d="M79.88,156.78H72.41l.07-1.14C75,155.05,77.57,154.5,79.88,156.78Z"/><path class="cls-8" d="M100.16,143.52h-7v-1.05h7Z"/><path class="cls-8" d="M52.38,144.08h7.29c.17,3.26-2.32,2.06-3.83,2.12S52.11,147.07,52.38,144.08Z"/><path class="cls-9" d="M80.19,104.11l-.55.71-.78.77-2.26.84a40,40,0,0,0-6.46-2.26,17.15,17.15,0,0,0-6.66.08c-2.32.54-4.46,1.85-6.68,2.83a56.6,56.6,0,0,1-4.36-5.22c-1.61-2.45-.64-4.23,2.35-4.27q12-.15,23.94,0c2.65,0,3.86,1.46,2.55,4.18C80.91,102.56,80.55,103.34,80.19,104.11Z"/><path class="cls-6" d="M25.44,102.49c-2.65-.69-5.33-1.26-7.93-2.09-2.21-.72-2.36-2.26-1-4,3.45-4.56,14.7-4.56,18-.4.58.75,1,2.56.67,2.89a14.07,14.07,0,0,1-4.75,2.93c-1.45.47-3.17.1-4.77.1Z"/><path class="cls-9" d="M104.35,91.37l-1,.3a37,37,0,0,1-2.09-4c-2.77-7.42-7-8.31-12.33-2.42-1.46,1.63-2.57,3.58-4,5.25-.43.5-1.38.55-2.09.81,0-.77-.36-1.81,0-2.26,2.5-3,4.83-6.23,7.83-8.62,4-3.16,8.07-2.38,10.62,2C102.85,85,103.36,88.33,104.35,91.37Z"/><path class="cls-9" d="M52.22,90.73c-.67.27-1.15.65-1.58.59a3,3,0,0,1-1.8-.8c-1.56-1.89-2.8-4.07-4.49-5.82-5-5.17-8.77-4.36-11.61,2.31A10.4,10.4,0,0,1,32,89.08a21.52,21.52,0,0,1-2.12,2.27c-.13-1-.28-2-.37-3a1.59,1.59,0,0,1,.2-.71c1.49-3.8,2.8-7.93,7.47-8.83s7.54,2.26,10.23,5.35C49,86,50.29,88.11,52.22,90.73Z"/><path class="cls-6" d="M56.8,107.08c2.22-1,4.36-2.29,6.68-2.83a17.15,17.15,0,0,1,6.66-.08,40,40,0,0,1,6.46,2.26c-.2.47-.41.94-.61,1.42l0,0L63.2,110.11l-5.66-1.6Z"/><path class="cls-10" d="M56.8,107.08l.74,1.43c-3.08-.1-5.39-2.26-7.09-6.69-.47-1.22-.86-2.47-1.55-4.45a72.26,72.26,0,0,1,8.76-1.27c6.87-.19,13.76,0,20.64-.08,1.93,0,3.94-.1,4.17,2.41.2,2.17,1.12,4.87-2.28,5.68.36-.77.72-1.55,1.09-2.32,1.31-2.72.1-4.13-2.55-4.18q-12-.18-23.94,0c-3,0-4,1.82-2.35,4.27A56.6,56.6,0,0,0,56.8,107.08Z"/><path class="cls-8" d="M47.34,63.82,34,66.82C35,62.86,43.15,61,47.34,63.82Z"/><path class="cls-8" d="M100.52,66.3l-12.4-2.37C90.86,61,98.69,62.35,100.52,66.3Z"/><path class="cls-8" d="M63.2,110.11,76,107.87A12.47,12.47,0,0,1,63.2,110.11Z"/><path class="cls-8" d="M76,107.85c.2-.48.41-.95.61-1.42l2.26-.84,0,.78,0,0-.76.74h0l-.86.75Z"/><path class="cls-10" d="M78.89,106.37l0-.78.78-.77Z"/><path class="cls-10" d="M78.15,107.09l.76-.74Z"/><path class="cls-10" d="M77.3,107.83l.86-.75Z"/></g></g></svg>