<svg xmlns="http://www.w3.org/2000/svg" viewBox="0 0 132.26 166.87"><defs><style>.cls-1{fill:#d0954f;}.cls-2{fill:#cb9a5d;}.cls-3{fill:#e7aa5c;}.cls-4{fill:#f86f82;}.cls-5{fill:#e9b16b;}.cls-6{fill:#582d0a;}.cls-7{fill:#c2853f;}</style></defs><g id="Layer_2" data-name="Layer 2"><g id="Layer_1-2" data-name="Layer 1"><path class="cls-1" d="M31.76,11A50.21,50.21,0,0,1,62,.05c24-.88,42.53,9.16,55.46,29.29,7.12,11.09,1.91,23.5,4.26,36.39,2.82,15.49,11.79,31.08,10.38,46.66-1.24,13.7-4.12,27-13.24,38a43.58,43.58,0,0,1-20.21,13.64c-18.75,6.24-37.91.75-57.12-3.38C20.7,156.21,17,149,12,128.54,6.66,106.81-3,84.81.93,62.73H2.28C1.77,68.57,1.05,74.4.8,80.25c-.59,13.5,9.43,27,12.06,40.17,2.57,12.89,8.18,24.47,19.75,31.8,8.81,5.59,9.84,2.27,20.2,2.64,11.6.41,23.27,6.71,34.75,3.93,11.69-2.83,22-8,28.87-18.12,8.49-12.39,9.84-26.82,10.55-41.3,0-.37-1.35-.81-2.08-1.22-.18-.44-.36-.89-.53-1.34,4.18-.78,3.69-3.19,2.08-6-.06-7-8.28-14.22-9.36-21.1-2.53-16.21,1.62-31.73-9-44.71-5.38-6.57-11.73-12.15-19.62-15.6A63.14,63.14,0,0,0,67.63,4.15,47.66,47.66,0,0,0,47.51,6.48C42.15,8.41,37,11,31.78,13.25Z"/><path class="cls-2" d="M31.76,11l0,2.28c-1.21,1.21-2.44,2.38-3.61,3.62-4,4.23-8.62,8.05-11.82,12.82C10.23,38.84,5.62,48.8,3.67,59.81a12,12,0,0,1-1.39,2.92H.93c1.5-10,5.25-19.29,10.06-28.14A72.77,72.77,0,0,1,29.85,12,11.08,11.08,0,0,1,31.76,11Z"/><path class="cls-3" d="M2.28,62.73a12,12,0,0,0,1.39-2.92c2-11,6.56-21,12.68-30.12,3.2-4.77,7.82-8.59,11.82-12.82,1.17-1.24,2.4-2.41,3.61-3.62C37,11,42.15,8.41,47.51,6.48A47.66,47.66,0,0,1,67.63,4.15,63.14,63.14,0,0,1,88.44,9.41c7.89,3.45,14.24,9,19.62,15.6,10.65,13,6.5,28.5,9,44.71,1.08,6.88,9.3,14.06,9.35,21.1l-11.92-1.5-.08-2.42c-.44-1.9-.87-3.81-1.3-5.71.4-.47,1.24-1.14,1.13-1.4-1.21-2.88-2.58-5.71-4-8.77,2.27-2.54,1.57-5.79.54-9.07l-2.19-3.67c.14-.64.57-1.72.37-1.86-2.55-1.74-1.73-4.34-1.87-6.7a8.92,8.92,0,0,0-.31-2.9c-5.09-12.19-13.5-22.07-25-27.81-13.25-6.59-27.52-6-41.53-.68C33.14,21,28.13,26.54,22,30.54c-.54,4.38-4.85,6.11-6.71,9.59-1.19,2.23-4.35,3.19-4.22,6.34h0c-.46.34-1.33.69-1.32,1A47.41,47.41,0,0,1,7,63.34c-1.79,5.4-1.42,11.56-1.73,17.4C5,85.15,5.18,89.59,5.18,94h1L3.84,96c.78,1.52,1.9,2.76,2,4.08.53,7.79,12,15.16,15.08,22.1,1.9,4.26,5.44,8.15,9.1,11.16,4.3,3.54,0,7.05,5.82,7.91,4,.59,8,.78,12,1.34A12.23,12.23,0,0,1,51,144c.69.71,1.36,2,2.08,2a32.85,32.85,0,0,0,5.71-.69L58.37,144a20.37,20.37,0,0,1,3.8-1.49c8.08-1.42,16.37-1.11,24.15-4.95,7.53-3.72,14-8.62,18-15.68C108,115.23,110,107.57,113,99.64h3.74l8.12-1.49c.73.41,2.1.85,2.08,1.22-.71,14.48-2.06,28.91-10.55,41.3-6.92,10.1-17.18,15.29-28.87,18.12-11.48,2.78-23.15-3.52-34.75-3.93-10.36-.37-11.39,2.95-20.2-2.64-11.57-7.33-17.18-18.91-19.75-31.8C10.23,107.21.21,93.75.8,80.25,1.05,74.4,1.77,68.57,2.28,62.73Zm68.89,92.94,0,1.09h7.53v-1.09ZM98.8,143.45l0-1.08h-7l0,1.08Z"/><path class="cls-4" d="M124.9,98.15l-8.12,1.49c-2.44-1-5-1.89-7.29-3.09-.95-.49-2.11-1.69-2.12-2.58s1.11-2.11,2-2.65a35.42,35.42,0,0,1,5.11-2l11.92,1.5c1.62,2.8,2.11,5.21-2.07,6C124.54,97.26,124.72,97.71,124.9,98.15Z"/><path class="cls-5" d="M114.52,89.32a35.42,35.42,0,0,0-5.11,2c-.93.54-2,1.75-2,2.65s1.17,2.09,2.12,2.58c2.34,1.2,4.85,2.08,7.29,3.09H113c-3,7.93-5,15.59-8.77,22.27-4,7.06-10.42,12-18,15.68-7.78,3.84-16.07,3.53-24.15,4.95a20.37,20.37,0,0,0-3.8,1.49H51a12.23,12.23,0,0,0-3.19-1.48c-4-.56-8-.75-12-1.34-5.84-.86-1.52-4.37-5.82-7.91-3.66-3-7.2-6.9-9.1-11.16-3.11-6.94-14.55-14.31-15.08-22.1-.09-1.32-1.21-2.56-2-4.08L6.22,94h-1c0-4.43-.18-8.87.05-13.28.31-5.84-.06-12,1.73-17.4A47.41,47.41,0,0,0,9.77,47.49c0-.33.86-.68,1.32-1l.57,2,.89-.6-1.46-1.37c-.13-3.15,3-4.11,4.22-6.34,1.86-3.48,6.17-5.21,6.71-9.59,6.11-4,11.12-9.52,18.21-12.21,14-5.29,28.28-5.91,41.53.68,11.55,5.74,20,15.62,25,27.81a8.92,8.92,0,0,1,.31,2.9c.14,2.36-.68,5,1.87,6.7.2.14-.23,1.22-.37,1.86C104,55.19,96.81,55,94.54,57.92c2.21,0,4.6-.48,6.7.11,3.3.93,6.39,2.57,9.57,3.92,1,3.28,1.73,6.53-.54,9.07,1.42,3.06,2.79,5.89,4,8.77.11.26-.73.93-1.13,1.4l-1.47-2.54c-3.4-5.92-8.52-7.13-13.75-2.77-2.69,2.25-4.79,5.22-7,8-.6.77-.5,2.08-.72,3.14,1-.51,2.29-.79,3-1.57,2.28-2.38,4.11-5.23,6.58-7.36,3.59-3.11,6.7-2.45,9.11,1.64a31.41,31.41,0,0,1,2.54,6.1c.59,1.8,1.45,2.1,2.94,1.05Zm-31,15.51a4.93,4.93,0,0,0,.94,2.24c2.07,2,4.12,4.43,6.68,5.51,1.23.52,3.57-1.62,5.41-2.54.53-.26,1.44-.38,1.56-.75.7-2.31,2.23-5,1.56-6.93-.92-2.63-3.62-3.61-6.7-1.74-.93.56-2.75-.12-4.09-.5C85.92,99.3,83.47,101,83.49,104.83ZM29,88.87c-2.87.61-5.51.8-7.8,1.8-1.79.78-3.14,2.57-4.68,3.92,1.57,1.18,3.06,3.23,4.73,3.39a77.69,77.69,0,0,0,13.81,0c.94-.07,2.31-2,2.42-3.21a4.43,4.43,0,0,0-1.89-3.52A38,38,0,0,0,29,88.87ZM41.41,75.55c2.2,1.33,4.22,2.11,5.61,3.5,2.24,2.25,4,5,6.08,7.35.44.51,1.4.56,2.12.83.12-.73.61-1.78.3-2.15-3-3.51-5.89-7.2-9.33-10.26a6.64,6.64,0,0,0-8.28-.47c-4,2.62-5.38,6.87-6.6,11.14-.14.49.76,1.27,1.17,1.92C33,87,33.77,86.74,34,86.22c1-2.21,1.68-4.65,3-6.68C38,78,39.73,77,41.41,75.55ZM71.89,107.6a18,18,0,0,1,3,1.26,21.88,21.88,0,0,1,2.62,2.31,26.5,26.5,0,0,1-3,2.35,11.84,11.84,0,0,1-2.69.82c.11.33.21.67.32,1,3,.2,6.27-.07,7.78-2.92.64-1.21-1.23-3.75-1.75-5.13.68-1.76,2.17-3.71,1.88-5.33-.42-2.33-5.2-3.37-7.94-2.32l5.39,3.49ZM52,58.46c-5.05-5-15.13-2.54-16.77,3.59A17.68,17.68,0,0,1,52,58.46Z"/><path class="cls-6" d="M114.44,86.9c-1.49,1-2.35.75-2.94-1.05a31.41,31.41,0,0,0-2.54-6.1c-2.41-4.09-5.52-4.75-9.11-1.64-2.47,2.13-4.3,5-6.58,7.36-.75.78-2,1.06-3,1.57.22-1.06.12-2.37.72-3.14,2.18-2.8,4.28-5.77,7-8,5.23-4.36,10.35-3.15,13.75,2.77l1.47,2.54C113.57,83.09,114,85,114.44,86.9Z"/><path class="cls-7" d="M110.81,62c-3.18-1.35-6.27-3-9.57-3.92-2.1-.59-4.49-.11-6.7-.11,2.27-2.88,9.44-2.73,14.08.36Z"/><path class="cls-7" d="M71.17,155.67h7.55v1.09H71.19Z"/><path class="cls-7" d="M51,144h7.37l.42,1.35a32.85,32.85,0,0,1-5.71.69C52.36,146.05,51.69,144.75,51,144Z"/><path class="cls-7" d="M98.8,143.45h-7l0-1.08h7Z"/><path class="cls-4" d="M83.49,104.83c0-3.79,2.43-5.53,5.36-4.71,1.34.38,3.16,1.06,4.09.5,3.08-1.87,5.78-.89,6.7,1.74.67,1.91-.86,4.62-1.56,6.93-.12.37-1,.49-1.56.75-1.84.92-4.18,3.06-5.41,2.54-2.56-1.08-4.61-3.47-6.68-5.51A4.93,4.93,0,0,1,83.49,104.83Z"/><path class="cls-4" d="M29,88.87a38,38,0,0,1,6.59,2.33,4.43,4.43,0,0,1,1.89,3.52c-.11,1.18-1.48,3.14-2.42,3.21a77.69,77.69,0,0,1-13.81,0c-1.67-.16-3.16-2.21-4.73-3.39,1.54-1.35,2.89-3.14,4.68-3.92C23.48,89.67,26.12,89.48,29,88.87Z"/><path class="cls-6" d="M41.41,75.55C39.73,77,38,78,37,79.54c-1.31,2-1.94,4.47-3,6.68-.25.52-1,.8-1.54,1.19-.41-.65-1.31-1.43-1.17-1.92,1.22-4.27,2.63-8.52,6.6-11.14a6.64,6.64,0,0,1,8.28.47c3.44,3.06,6.33,6.75,9.33,10.26.31.37-.18,1.42-.3,2.15-.72-.27-1.68-.32-2.12-.83C51,84,49.26,81.3,47,79.05,45.63,77.66,43.61,76.88,41.41,75.55Z"/><path class="cls-6" d="M71.89,107.6l5.6-4.46L72.1,99.65c2.74-1.05,7.52,0,7.94,2.32.29,1.62-1.2,3.57-1.88,5.33.52,1.38,2.39,3.92,1.75,5.13-1.51,2.85-4.79,3.12-7.78,2.92-.11-.34-.21-.68-.32-1a11.84,11.84,0,0,0,2.69-.82,26.5,26.5,0,0,0,3-2.35,21.88,21.88,0,0,0-2.62-2.31A18,18,0,0,0,71.89,107.6Z"/><path class="cls-7" d="M52,58.46a17.68,17.68,0,0,0-16.77,3.59C36.86,55.92,46.94,53.51,52,58.46Z"/><path class="cls-3" d="M11.09,46.47l1.46,1.37-.89.6-.57-2Z"/></g></g></svg>