<svg xmlns="http://www.w3.org/2000/svg" viewBox="0 0 132.52 160.97"><defs><style>.cls-1{fill:#d0954e;}.cls-2{fill:#cb9a5d;}.cls-3{fill:#e7aa5c;}.cls-4{fill:#e9b16b;}.cls-5{fill:#b2dddf;}.cls-6{fill:#deab6c;}.cls-7{fill:#c2853f;}.cls-8{fill:#fefdfd;}.cls-9{fill:#582d0a;}</style></defs><g id="Layer_2" data-name="Layer 2"><g id="Layer_1-2" data-name="Layer 1"><path class="cls-1" d="M31.55,10.78A48.91,48.91,0,0,1,56.8.48C83.93-2.73,92.58,10.19,105,34.57c7.51,14.81,26.29,23.55,27.16,40.1.83,15.91.68,31.74-3.21,47.29C124,141.42,112.1,154,92.38,158.87,75.76,163,63,160.4,46.3,157c-19.95-4.07-33.41-15.78-38.89-35.85-.48-5,1.05-9.91.57-14.87a48.47,48.47,0,0,1,2.15,6.39c2.15,11.26,5.34,20.66,14.5,27.73,10.37,8,18.66,13.27,31.19,13.82a154.05,154.05,0,0,0,24.91-1.39c19.63-2.35,34.75-11.54,41.05-31.08,2.52-7.81,6.74-16,2.94-24.81a.41.41,0,0,1,0-.36c4.36-5.54,1.82-12,2-17.91C127,64.21,109,57.26,103.57,43.83,98.88,32.1,91.89,21.92,81.73,14.41,72,7.23,75.6,4.52,63.62,4c-11.82-.5-22.39,3.13-32.13,9.6Z"/><path class="cls-2" d="M31.55,10.78l-.06,2.84C26.3,19.06,20.42,24,16.05,30.05,6.07,43.83,1.18,52.75.67,69.61.27,82.81,7.48,93.06,8,106.28c.48,5-1.05,9.91-.57,14.87C6.12,115.43,6.25,109.76,5.64,104c-2-19.49-9-36-3.64-55.21C6.24,33.63,13,26.87,24.88,16.14,27,14.23,29.32,12.56,31.55,10.78Z"/><path class="cls-3" d="M8,106.28C7.48,93.06.27,82.81.67,69.61c.51-16.86,5.4-25.78,15.38-39.56,4.37-6,10.25-11,15.44-16.43C41.23,7.15,51.8,3.52,63.62,4c12,.5,8.4,3.21,18.11,10.39,10.16,7.51,17.15,17.69,21.84,29.42C109,57.26,127,64.21,126.67,78.67c-.13,6,2.41,12.37-2,17.91a.41.41,0,0,0,0,.36c3.8,8.81-.42,17-2.94,24.81-6.3,19.54-21.42,28.73-41,31.08a154.05,154.05,0,0,1-24.91,1.39C43.29,153.67,35,148.4,24.63,140.4c-9.16-7.07-12.35-16.47-14.5-27.73A48.47,48.47,0,0,0,8,106.28ZM118.57,96.7c3-.62,3.39-2.84,3-5.27-.42-2.84-3.45-7.46-6-8a31.34,31.34,0,0,1-4.3-1.5l2-3c-.51-2-1.2-3.57-1.27-5.18-.23-5,.17-10-.44-15-.43-3.51-2.51-6.8-3.15-10.31-2.08-11.63-23.2-14.07-31.16-22.25-8.66-8.9-5.13-12-17.1-12.44-4.91-.2-10.09,1.23-14.82,2.87-5.94,2.05-12.25,4.14-17.09,7.9-6,4.64-10.67,3.87-14.49,10.66-4.8,8.53-7,17.85-8.73,27.22A108.79,108.79,0,0,0,3.62,84.93c.14,5.23,2.05,10.39,3,15.62.51,2.89,6.78,2.85,6.84,5.79a29.64,29.64,0,0,1-.85,5.38l.68.18L14.79,109c.78.63,1.55.94,1.81,1.49,4.46,9.39,8.93,16.67,19.21,19.64a94.27,94.27,0,0,0,15.51,3.35c4,.44,4.09,2.92,8.07,2.34,7.06-1,14.14-2.15,21.09-3.75,5-1.15,9.57-2.84,13.84-6.45a50.27,50.27,0,0,0,13.41-18.34c1.29-2.86,1.49-6.22,2.19-9.35C113.09,99.52,116,99.37,118.57,96.7ZM71,148.65c1.68,2.81,5.21,2.8,7.4,0Zm-34.26-7.47,0-1.08H30.1v1.08Z"/><path class="cls-4" d="M109.92,98c-.7,3.13-.9,6.49-2.19,9.35a50.27,50.27,0,0,1-13.41,18.34c-4.27,3.61-8.87,5.3-13.84,6.45-7,1.6-14,2.72-21.09,3.75-4,.58-4.11-1.9-8.07-2.34a94.27,94.27,0,0,1-15.51-3.35c-10.28-3-14.75-10.25-19.21-19.64-.26-.55-1-.86-1.81-1.49l-1.53,2.87-.68-.18a29.64,29.64,0,0,0,.85-5.38c-.06-2.94-6.33-2.9-6.84-5.79-.92-5.23-2.83-10.39-3-15.62A108.79,108.79,0,0,1,5.11,62.48C6.83,53.11,9,43.79,13.84,35.26c3.82-6.79,8.53-6,14.49-10.66,4.84-3.76,11.15-5.85,17.09-7.9,4.73-1.64,9.91-3.07,14.82-2.87,12,.47,8.44,3.54,17.1,12.44,8,8.18,29.08,10.62,31.16,22.25.64,3.51,2.72,6.8,3.15,10.31.61,4.93.21,10,.44,15,.07,1.61.76,3.18,1.27,5.18l-2,3L107,80.74a62.82,62.82,0,0,0-3-6.32c-3.41-5.56-8.29-6.62-13.29-2.42-3,2.48-5.2,5.82-7.61,8.89-.4.51,0,1.63,0,2.47a7.07,7.07,0,0,0,2.36-1.12c1-1.06,1.61-2.47,2.58-3.57,2.49-2.86,4.88-6.59,9.1-6.06,4.41.56,5.19,5,6.71,8.45.45,1,1.86,1.64,2.83,2.43C106.78,88.55,106.49,93.66,109.92,98ZM24.12,83.39c1-.58,2.27-.94,2.82-1.79.93-1.4,1.25-3.18,2-4.69,2.77-5.28,6.15-6,10.48-1.89,2.29,2.17,4,4.94,6.12,7.31.53.58,1.59.69,2.41,1,0-.87.33-2-.1-2.54-2.64-3.2-5.1-6.67-8.27-9.24C35,67.87,30.24,69,27.21,74.15c-1.47,2.5-2.27,5.39-3.38,8.1-5.22-.32-9.07,2.75-12.19,6.1-1.34,1.44-1.21,5.3-.29,7.44.64,1.49,3.7,2.45,5.78,2.66,2.41.25,5-.59,5.52-3.65C23.26,91,23.64,87.2,24.12,83.39Zm41.89,6v0c-4.42,0-8.84,0-13.26,0-3.42,0-4.37,1.57-2.87,4.73,2.19,4.59,5.94,7.32,10.74,8.8,7.47,2.3,16.68-1.38,20.27-8.19,1.91-3.6,1-5.28-3.08-5.31S69.94,89.35,66,89.35ZM45,54.4C39.38,50,31.3,51.57,28.71,58,34.07,55,39.1,52.55,45,54.4Zm59.56,4.49c-2.08-7.11-12.32-9.25-17.32-4.15C93.63,52.91,99.1,54,104.53,58.89Z"/><path class="cls-5" d="M109.92,98c-3.43-4.3-3.14-9.41-3.12-14.47l.43-1.09,3.47,1c7.75,2.32,10.45,6.88,7.87,13.28C116,99.37,113.09,99.52,109.92,98Z"/><path class="cls-6" d="M118.57,96.7c2.58-6.4-.12-11-7.87-13.28l-3.47-1c-.07-.56-.13-1.11-.19-1.66L111.32,82a31.34,31.34,0,0,0,4.3,1.5c2.53.52,5.56,5.14,6,8C122,93.86,121.54,96.08,118.57,96.7Z"/><path class="cls-7" d="M71,148.65h7.4C76.21,151.45,72.68,151.46,71,148.65Z"/><path class="cls-7" d="M36.74,141.18H30.09V140.1h6.69Z"/><path class="cls-8" d="M66,89.35c3.93,0,7.86,0,11.8,0s5,1.71,3.08,5.31c-3.59,6.81-12.8,10.49-20.27,8.19-4.8-1.48-8.55-4.21-10.74-8.8-1.5-3.16-.55-4.69,2.87-4.73,4.42-.06,8.84,0,13.26,0Z"/><path class="cls-5" d="M24.12,83.39c-.48,3.81-.86,7.63-1.47,11.41-.49,3.06-3.11,3.9-5.52,3.65-2.08-.21-5.14-1.17-5.78-2.66-.92-2.14-1-6,.29-7.44,3.12-3.35,7-6.42,12.19-6.1C23.93,82.63,24,83,24.12,83.39Z"/><path class="cls-9" d="M107,80.74c.06.55.12,1.1.19,1.66l-.43,1.09c-1-.79-2.38-1.4-2.83-2.43-1.52-3.46-2.3-7.89-6.71-8.45-4.22-.53-6.61,3.2-9.1,6.06-1,1.1-1.58,2.51-2.58,3.57a7.07,7.07,0,0,1-2.36,1.12c0-.84-.44-2,0-2.47,2.41-3.07,4.66-6.41,7.61-8.89,5-4.2,9.88-3.14,13.29,2.42A62.82,62.82,0,0,1,107,80.74Z"/><path class="cls-9" d="M24.12,83.39c-.1-.38-.19-.76-.29-1.14,1.11-2.71,1.91-5.6,3.38-8.1,3-5.14,7.82-6.28,12.41-2.58,3.17,2.57,5.63,6,8.27,9.24.43.52.08,1.67.1,2.54-.82-.33-1.88-.44-2.41-1C43.47,80,41.75,77.19,39.46,75c-4.33-4.09-7.71-3.39-10.48,1.89-.79,1.51-1.11,3.29-2,4.69C26.39,82.45,25.09,82.81,24.12,83.39Z"/><path class="cls-7" d="M45,54.4C39.1,52.55,34.07,55,28.71,58,31.3,51.57,39.38,50,45,54.4Z"/><path class="cls-7" d="M104.53,58.89c-5.43-4.85-10.9-6-17.32-4.15C92.21,49.64,102.45,51.78,104.53,58.89Z"/></g></g></svg>