<svg xmlns="http://www.w3.org/2000/svg" viewBox="0 0 268.42 238.74"><defs><style>.cls-1{fill:#d0954e;}.cls-2{fill:#d0954f;}.cls-3{fill:#cb9a5d;}.cls-4{fill:#e7aa5c;}.cls-5{fill:#e9b16b;}.cls-6{fill:#f86f82;}.cls-7{fill:#eab16b;}.cls-8{fill:#c2853f;}.cls-9{fill:#582d0a;}.cls-10{fill:#efbc7d;}</style></defs><g id="Layer_2" data-name="Layer 2"><g id="Layer_1-2" data-name="Layer 1"><g id="Layer_2-2" data-name="Layer 2"><g id="Layer_1-2-2" data-name="Layer 1-2"><path class="cls-1" d="M159.41,20.72c11.26,8.89,14.68,21,19.08,34.23,7,21.26,19.79,37.12,17.49,59.21-.95,9.09-2.79,17.93-6.7,26.24-6.47,13.72-17.52,21.93-32,25.36-20.31,4.82-40.67,5.43-60.61-1.8a42.3,42.3,0,0,1-22.25-19.29c.29-2.48-.1-4.58-3-5.31a.22.22,0,0,1-.09-.3l.06-.06c-.23-1.39-.44-2.78-.69-4.16-.44-2.45-.9-4.89-1.36-7.34a32.53,32.53,0,0,1,2.1,3.11c2.11,3.82,3.64,8.09,6.32,11.45,7,8.75,16.34,15.3,27.24,17.29,16.54,3,33.21,2.91,49.57-1.38,13.25-3.47,23.82-10.81,29.59-23.66a80.37,80.37,0,0,0,6.9-32.08c.13-11.5-3.61-23-4.4-34.51-.76-11-11.1-15.1-15.77-24.8a63.46,63.46,0,0,0-21.2-24.34l-1.46-.77-3-1.49c2.39-1.09,5.2-2.8,6.87.46S156.44,20.43,159.41,20.72Z" transform="translate(-3.01)"/><path class="cls-2" d="M159.41,20.72c-3-.29-5.61-.68-7.27-3.94s-4.48-1.55-6.87-.46c-2.86-1.05-5.74-2-8.56-3.16-9.38-3.71-8.19-9.71-17.76-8-6.46,1.16-12.56,4.37-18.82,6.66,0-.77,0-1.54-.07-2.32v.05l.8-.69c10-6.73,19.11-9.42,31-8.77,13,.72,16,10.38,26.12,19A14.41,14.41,0,0,1,159.41,20.72Z" transform="translate(-3.01)"/><path class="cls-3" d="M100.06,9.5c0,.78,0,1.55.07,2.32h0l-4.42,3h0l-1.49,1.44c-1.26,1.48-2.54,2.95-3.79,4.45-3.64,4.34-8,8.29-10.72,13.2C70.79,49.72,64.39,66.84,64.88,85.09c.21,7.58.49,15.17.74,22.75l-.21,12.91c-.75-5-1.87-9.88-2.21-14.86-1.5-22,.94-43.74,10.33-64.31C79,29.68,86.32,19.24,96.87,11.29A24.85,24.85,0,0,1,100.06,9.5Z" transform="translate(-3.01)"/><path class="cls-3" d="M69.34,127.51c.46,2.45.92,4.89,1.36,7.34.25,1.38.46,2.77.69,4.16q-2.86-8.69-5.72-17.38A15.5,15.5,0,0,0,67.12,124a19.75,19.75,0,0,0,2.19,2Z" transform="translate(-3.01)"/><path class="cls-1" d="M69.31,126.07a19.75,19.75,0,0,1-2.19-2,15.78,15.78,0,0,1-1.45-2.4c-.09-.63-.17-.25-.25-.88q.09-6.45.2-12.91C66.85,114.25,68.08,119.66,69.31,126.07Z" transform="translate(-3.01)"/><path class="cls-3" d="M71.47,139.36c2.85.73,3.24,2.83,3,5.31Q72.94,142,71.47,139.36Z" transform="translate(-3.01)"/><path class="cls-3" d="M100.84,8.86l-.8.69Z" transform="translate(-3.01)"/><path class="cls-4" d="M69.31,126.07c-1.23-6.41-2.46-11.82-3.69-18.23-.25-7.58-.53-15.17-.74-22.75-.49-18.25,5.91-35.37,14.83-51.18,2.75-4.91,7.08-8.86,10.71-13.23,1.25-1.5,2.53-3,3.79-4.45l1.49-1.44h0l4.42-3h0c6.27-2.26,12.37-5.47,18.83-6.63,9.57-1.71,8.38,4.29,17.76,8,2.82,1.12,5.7,2.11,8.56,3.16l3,1.49,1.46.77a63.41,63.41,0,0,1,21.2,24.35c4.67,9.7,15,13.81,15.77,24.8.79,11.48,4.53,23,4.4,34.51a80.37,80.37,0,0,1-6.9,32.08c-5.81,12.85-16.41,20.19-29.63,23.68-16.36,4.29-33,4.39-49.57,1.38-10.9-2-20.26-8.54-27.24-17.29-2.68-3.36-4.21-7.63-6.32-11.45-.6-1.09-1.4-2.08-2.1-3.11ZM177.89,94.52l-1.45-1.47c-.25-7.6-.2-15.22-.85-22.79-.5-5.87-9.57-6.37-12.23-11.3-2.74-5.11-2.2-11.32-6.47-15.74-2.42-2.51-3.6-6.31-6.18-8.57-4.94-4.32-10.47-8-15.77-11.87a3.38,3.38,0,0,0-1.36-.49c-3.7-.52,1.6-7.38-2.11-7.45-11-.22-20-.67-29.79,5.72-7,4.6-14.35,8.88-18.21,17-1.35,2.82-3.24,5.39-4.63,8.2A83.55,83.55,0,0,0,75,54.83a25.36,25.36,0,0,1-4.55,8,6,6,0,0,0-1.91,5c0,5.6-.27,11.22.1,16.79.21,3.12-2.22,7.25,2.54,9.26.13.06-.48,1.47-.48,2.25,0,4.17-.64,8.52.37,12.44.67,2.61,2.14,5,1.92,7.91a41.82,41.82,0,0,0,0,4.21c1.88.91,3.84,1.2,4.22,2.14a24.76,24.76,0,0,0,11.82,12.89c4.35,2.29,8.54,6,13.8,6.27,4.13.25,8.21,1.37,12.32,2.1-.27,3,2,2.18,3.46,2.11s4,1.14,3.83-2.12c.45-.41.85-1.11,1.35-1.19,4.07-.66,8.17-1.69,12.26-1.68,8.06,0,14.75-3.78,21.24-7.51,8.24-4.72,12.47-13,15.84-21.55.13-.34.17-.72.28-1.06l3-9.14C182.09,98.5,182.37,97.07,177.89,94.52Zm-35.22,62.26c-2.31-2.28-4.85-1.73-7.4-1.14l-.07,1.14ZM163,143.52v-1.05h-7v1.05Z" transform="translate(-3.01)"/><path class="cls-2" d="M149.69,18.58l-1.46-.77Z" transform="translate(-3.01)"/><path class="cls-2" d="M100.13,11.82l-4.42,3Z" transform="translate(-3.01)"/><path class="cls-2" d="M95.7,14.79l-1.49,1.44Z" transform="translate(-3.01)"/><path class="cls-5" d="M176.44,101.94l-3,9.14c-.11.34-.15.72-.28,1.06-3.37,8.59-7.6,16.83-15.84,21.55-6.49,3.73-13.18,7.54-21.24,7.51-4.09,0-8.19,1-12.26,1.68-.5.08-.9.78-1.35,1.19h-7.3c-4.11-.73-8.19-1.85-12.32-2.1-5.26-.31-9.45-4-13.8-6.27a24.76,24.76,0,0,1-11.82-12.89c-.38-.94-2.34-1.23-4.22-2.14,0-1.36-.12-2.3,0-4.21.22-2.9-1.25-5.3-1.92-7.91-1-3.92-.38-8.27-.37-12.44,0-.78.61-2.19.48-2.25-4.76-2-2.33-6.14-2.54-9.26-.37-5.57-.12-11.19-.1-16.79a6,6,0,0,1,1.91-5A25.21,25.21,0,0,0,75,54.75a83.55,83.55,0,0,1,3.8-9.07c1.39-2.81,3.28-5.38,4.63-8.2,3.86-8.07,11.16-12.35,18.21-16.95,9.8-6.39,18.84-5.94,29.79-5.72,3.71.07-1.59,6.93,2.11,7.45a3.38,3.38,0,0,1,1.36.49c5.3,3.9,10.83,7.55,15.77,11.87,2.58,2.26,3.76,6.06,6.18,8.57,4.27,4.42,3.73,10.63,6.47,15.74,2.66,4.93,11.73,5.43,12.23,11.3.65,7.57.6,15.19.85,22.79l-9.3-1.68c-1-3-1.5-6.36-3.09-9-2.55-4.33-6.67-5.11-10.62-2-3,2.39-5.33,5.65-7.83,8.62-.37.45,0,1.49,0,2.26.71-.26,1.66-.31,2.09-.81,1.42-1.67,2.53-3.62,4-5.25,5.28-5.89,9.56-5,12.33,2.42a35.33,35.33,0,0,0,2.09,4l-4.44,5.06c.31,3.38,2.49,4.91,5.57,5.13S173.37,101.93,176.44,101.94ZM141,107.08h0l.76-.74h0l.75-1.55.55-.71c3.4-.81,2.48-3.51,2.28-5.68C145,95.92,143,96,141.09,96c-6.88,0-13.77-.11-20.64.08a73.64,73.64,0,0,0-8.76,1.27c.69,2,1.08,3.23,1.55,4.45,1.7,4.43,4,6.59,7.09,6.69l5.66,1.6a12.47,12.47,0,0,0,12.8-2.22h1.31Zm-52.72-4.59.14-.58c1.6,0,3.32.37,4.77-.1a14.09,14.09,0,0,0,4.75-2.93c.36-.33-.09-2.14-.67-2.89-3.26-4.16-14.51-4.16-18,.4-1.32,1.75-1.17,3.29,1,4C82.9,101.23,85.58,101.8,88.23,102.49ZM115,90.73c-1.93-2.62-3.22-4.73-4.84-6.53-2.69-3.09-5.59-6.25-10.23-5.35s-6,5-7.47,8.83a1.52,1.52,0,0,0-.2.71c.09,1,.24,2,.37,3a20.49,20.49,0,0,0,2.15-2.31A11.42,11.42,0,0,0,95.53,87c2.84-6.67,6.61-7.48,11.61-2.31,1.69,1.75,2.93,3.93,4.49,5.82a2.89,2.89,0,0,0,1.8.8C113.86,91.38,114.34,91,115,90.73Zm-4.88-26.91c-4.19-2.82-12.34-1-13.34,3Zm53.18,2.48c-1.83-3.95-9.66-5.28-12.4-2.37Z" transform="translate(-3.01)"/><path class="cls-6" d="M176.44,101.94c-3.07,0-6.16.14-9.22-.08s-5.26-1.75-5.57-5.13c5-4,10.57-3.34,16.24-2.21C182.37,97.07,182.09,98.5,176.44,101.94Z" transform="translate(-3.01)"/><path class="cls-7" d="M177.89,94.52c-5.67-1.13-11.28-1.83-16.24,2.21l4.44-5.06,1-.3,9.3,1.68Z" transform="translate(-3.01)"/><path class="cls-8" d="M142.67,156.78H135.2l.07-1.14C137.79,155.05,140.36,154.5,142.67,156.78Z" transform="translate(-3.01)"/><path class="cls-8" d="M163,143.52h-7v-1.05h7Z" transform="translate(-3.01)"/><path class="cls-8" d="M115.17,144.08h7.29c.17,3.26-2.32,2.06-3.83,2.12S114.9,147.07,115.17,144.08Z" transform="translate(-3.01)"/><path class="cls-9" d="M143,104.11l-.55.71-.78.77-2.26.84a41.22,41.22,0,0,0-6.46-2.26,17.35,17.35,0,0,0-6.66.08c-2.32.54-4.46,1.85-6.68,2.83a54.3,54.3,0,0,1-4.36-5.22c-1.61-2.45-.64-4.23,2.35-4.27q12-.15,23.94,0c2.65,0,3.86,1.46,2.55,4.18Z" transform="translate(-3.01)"/><path class="cls-6" d="M88.23,102.49c-2.65-.69-5.33-1.26-7.93-2.09-2.21-.72-2.36-2.26-1-4,3.45-4.56,14.7-4.56,18-.4.58.75,1,2.56.67,2.89a14.09,14.09,0,0,1-4.75,2.93c-1.45.47-3.17.1-4.77.1Z" transform="translate(-3.01)"/><path class="cls-9" d="M167.14,91.37l-1,.3a35.33,35.33,0,0,1-2.09-4c-2.77-7.42-7-8.31-12.33-2.42-1.46,1.63-2.57,3.58-4,5.25-.43.5-1.38.55-2.09.81,0-.77-.36-1.81,0-2.26,2.5-3,4.83-6.23,7.83-8.62,4-3.16,8.07-2.38,10.62,2C165.64,85,166.15,88.33,167.14,91.37Z" transform="translate(-3.01)"/><path class="cls-9" d="M115,90.73c-.67.27-1.15.65-1.58.59a2.89,2.89,0,0,1-1.8-.8c-1.56-1.89-2.8-4.07-4.49-5.82-5-5.17-8.77-4.36-11.61,2.31a11.32,11.32,0,0,1-.74,2.07,21.73,21.73,0,0,1-2.12,2.27c-.13-1-.28-2-.37-3a1.52,1.52,0,0,1,.2-.71c1.49-3.8,2.8-7.93,7.47-8.83s7.54,2.26,10.23,5.35C111.79,86,113.08,88.11,115,90.73Z" transform="translate(-3.01)"/><path class="cls-6" d="M119.59,107.08c2.22-1,4.36-2.29,6.68-2.83a17.35,17.35,0,0,1,6.66-.08,41.22,41.22,0,0,1,6.46,2.26c-.2.47-.41.94-.61,1.42h0L126,110.11l-5.66-1.6Z" transform="translate(-3.01)"/><path class="cls-10" d="M119.59,107.08l.74,1.43c-3.08-.1-5.39-2.26-7.09-6.69-.47-1.22-.86-2.47-1.55-4.45a73.64,73.64,0,0,1,8.76-1.27c6.87-.19,13.76,0,20.64-.08,1.93,0,3.94-.1,4.17,2.41.2,2.17,1.12,4.87-2.28,5.68.36-.77.72-1.55,1.09-2.32,1.31-2.72.1-4.13-2.55-4.18q-12-.18-23.94,0c-3,0-4,1.82-2.35,4.27A54.06,54.06,0,0,0,119.59,107.08Z" transform="translate(-3.01)"/><path class="cls-8" d="M110.13,63.82l-13.34,3C97.79,62.86,105.94,61,110.13,63.82Z" transform="translate(-3.01)"/><path class="cls-8" d="M163.31,66.3l-12.4-2.37C153.65,61,161.48,62.35,163.31,66.3Z" transform="translate(-3.01)"/><path class="cls-8" d="M126,110.11l12.8-2.24A12.45,12.45,0,0,1,126,110.11Z" transform="translate(-3.01)"/><path class="cls-8" d="M138.79,107.85c.2-.48.41-.95.61-1.42l2.26-.84v.78h0l-.76.74h0l-.86.75Z" transform="translate(-3.01)"/><path class="cls-10" d="M141.68,106.37v-.78l.78-.77Z" transform="translate(-3.01)"/><path class="cls-10" d="M140.94,107.09l.76-.74Z" transform="translate(-3.01)"/><path class="cls-10" d="M140.09,107.83l.86-.75Z" transform="translate(-3.01)"/></g></g><path d="M3,187c1,0,2.31.1,3.94.15s3.22.07,4.8.07c2.24,0,4.39,0,6.45-.07s3.51-.08,4.37-.08c5.77,0,10.1,1.32,13,3.94a13.17,13.17,0,0,1,4.3,10.18,18.61,18.61,0,0,1-.86,5.4,14,14,0,0,1-3,5.23,15.23,15.23,0,0,1-5.77,3.91,24.54,24.54,0,0,1-9.24,1.5H14.11v-1.43h6.16q5.09,0,7.78-1.93a9.61,9.61,0,0,0,3.65-5.09,23.25,23.25,0,0,0,1-6.81q0-6.8-2.69-10.17t-9.21-3.37c-2.19,0-3.63.41-4.29,1.22s-1,2.46-1,5v35.53A10.55,10.55,0,0,0,16,234a2.94,2.94,0,0,0,2.11,1.71,22.64,22.64,0,0,0,4.59.58v1.43c-1.24-.09-2.82-.15-4.73-.18s-3.84,0-5.8,0-3.61,0-5.23,0-2.94.09-3.94.18v-1.43a14.79,14.79,0,0,0,3.69-.58A2.57,2.57,0,0,0,8.38,234a12.93,12.93,0,0,0,.43-3.87V194.62a12.92,12.92,0,0,0-.43-3.91A2.71,2.71,0,0,0,6.7,189,12.32,12.32,0,0,0,3,188.45Z" transform="translate(-3.01)"/><path d="M68.48,186a22.72,22.72,0,0,1,11.93,3.08,20.52,20.52,0,0,1,8,8.85,31.48,31.48,0,0,1,2.83,14,31.89,31.89,0,0,1-2.9,14,22.69,22.69,0,0,1-8.06,9.39,21.18,21.18,0,0,1-11.82,3.36,22.65,22.65,0,0,1-11.93-3.08,20.61,20.61,0,0,1-7.95-8.88,35.44,35.44,0,0,1,.11-28,23,23,0,0,1,8.06-9.38A20.9,20.9,0,0,1,68.48,186Zm-.28,1.29a11.44,11.44,0,0,0-8.1,3.22,21,21,0,0,0-5.33,8.89,41.05,41.05,0,0,0-1.9,13.1A37.49,37.49,0,0,0,55,225.74a20.45,20.45,0,0,0,5.73,8.67,12.12,12.12,0,0,0,8,3,11.43,11.43,0,0,0,8.09-3.22,21.05,21.05,0,0,0,5.34-8.92A41.16,41.16,0,0,0,84,212.24,37.62,37.62,0,0,0,81.92,199a20.61,20.61,0,0,0-5.7-8.64A12.07,12.07,0,0,0,68.2,187.31Z" transform="translate(-3.01)"/><path d="M137.4,187c-.19,1.82-.32,3.57-.4,5.27s-.1,3-.1,3.9c0,1.15,0,2.22.07,3.23s.09,1.88.14,2.65h-1.65a43.61,43.61,0,0,0-1.36-7.92,6.9,6.9,0,0,0-3-4.19q-2.15-1.29-6.66-1.29h-3.87v40.76a12.94,12.94,0,0,0,.54,4.3,3.12,3.12,0,0,0,2.11,1.93,18.89,18.89,0,0,0,4.59.65v1.43c-1.24-.09-2.82-.15-4.73-.18s-3.84,0-5.8,0q-3.22,0-6.06,0c-1.88,0-3.4.09-4.54.18v-1.43a18.88,18.88,0,0,0,4.58-.65,3.1,3.1,0,0,0,2.11-1.93,12.94,12.94,0,0,0,.54-4.3V188.67H110q-4.44,0-6.62,1.29a6.91,6.91,0,0,0-3,4.19A44.51,44.51,0,0,0,99,202.07H97.35a24.57,24.57,0,0,0,.18-2.65c0-1,0-2.08,0-3.23,0-.91,0-2.21-.11-3.9s-.2-3.45-.39-5.27l6.55.15c2.37,0,4.74.07,7.13.07h13c2.37,0,4.74,0,7.13-.07Z" transform="translate(-3.01)"/><path d="M159.25,186.66l17.47,45.06a7.55,7.55,0,0,0,2.44,3.62,5.26,5.26,0,0,0,2.51,1v1.43q-1.44-.13-3.51-.18c-1.39,0-2.77,0-4.16,0-1.86,0-3.6,0-5.23,0s-2.93.09-3.94.18v-1.43c2.44-.1,4-.51,4.66-1.26s.53-2.32-.43-4.76l-13.32-35.6,1.14-.93-12.46,32.38a18.76,18.76,0,0,0-1.36,4.83,5.33,5.33,0,0,0,.39,3.12,3.51,3.51,0,0,0,2.08,1.64,12.74,12.74,0,0,0,3.69.58v1.43c-1.34-.09-2.74-.15-4.19-.18l-4.05,0c-1.2,0-2.21,0-3,0s-1.61.09-2.32.18v-1.43a7.14,7.14,0,0,0,2.93-1.69,11.45,11.45,0,0,0,2.73-4.54l16.83-43.42h1.15ZM168,217.11v1.43H146.64l.71-1.43Z" transform="translate(-3.01)"/><path d="M220.07,187c-.19,1.82-.33,3.57-.4,5.27s-.11,3-.11,3.9c0,1.15,0,2.22.07,3.23s.1,1.88.15,2.65h-1.65a44.51,44.51,0,0,0-1.36-7.92,6.94,6.94,0,0,0-3-4.19q-2.14-1.29-6.66-1.29h-3.87v40.76a12.94,12.94,0,0,0,.54,4.3,3.12,3.12,0,0,0,2.11,1.93,18.89,18.89,0,0,0,4.59.65v1.43c-1.25-.09-2.82-.15-4.73-.18s-3.85,0-5.8,0q-3.23,0-6.06,0c-1.88,0-3.4.09-4.55.18v-1.43a18.89,18.89,0,0,0,4.59-.65,3.12,3.12,0,0,0,2.11-1.93,12.94,12.94,0,0,0,.54-4.3V188.67H192.7q-4.44,0-6.63,1.29a6.9,6.9,0,0,0-3,4.19,44.51,44.51,0,0,0-1.36,7.92H180a24.57,24.57,0,0,0,.18-2.65c0-1,0-2.08,0-3.23,0-.91,0-2.21-.11-3.9s-.21-3.45-.4-5.27l6.56.15c2.36,0,4.74.07,7.13.07h13c2.36,0,4.74,0,7.13-.07Z" transform="translate(-3.01)"/><path d="M248.72,186a22.77,22.77,0,0,1,11.93,3.08,20.64,20.64,0,0,1,8,8.85,31.62,31.62,0,0,1,2.83,14,32,32,0,0,1-2.9,14,22.76,22.76,0,0,1-8.06,9.39,21.18,21.18,0,0,1-11.82,3.36,22.62,22.62,0,0,1-11.93-3.08,20.49,20.49,0,0,1-7.95-8.88,35.44,35.44,0,0,1,.11-28,22.94,22.94,0,0,1,8.05-9.38A21,21,0,0,1,248.72,186Zm-.29,1.29a11.43,11.43,0,0,0-8.09,3.22,21.06,21.06,0,0,0-5.34,8.89,41.05,41.05,0,0,0-1.9,13.1,37.72,37.72,0,0,0,2.11,13.22,20.37,20.37,0,0,0,5.74,8.67,12.1,12.1,0,0,0,8,3,11.44,11.44,0,0,0,8.1-3.22,21.15,21.15,0,0,0,5.34-8.92,41.46,41.46,0,0,0,1.89-13.07A37.4,37.4,0,0,0,262.15,199a20.69,20.69,0,0,0-5.69-8.64A12.09,12.09,0,0,0,248.43,187.31Z" transform="translate(-3.01)"/></g></g></svg>