<svg xmlns="http://www.w3.org/2000/svg" viewBox="0 0 128.01 169.26"><defs><style>.cls-1{fill:#d0954e;}.cls-2{fill:#cb9a5d;}.cls-3{fill:#e7aa5c;}.cls-4{fill:#e9b16b;}.cls-5{fill:#fb6c84;}.cls-6{fill:#f86f82;}.cls-7{fill:#c2853f;}.cls-8{fill:#f4f1ea;}.cls-9{fill:#4a2b11;}.cls-10{fill:#f9f7ef;}.cls-11{fill:#582d0a;}.cls-12{fill:#efbc7d;}</style></defs><g id="Layer_2" data-name="Layer 2"><g id="Layer_1-2" data-name="Layer 1"><path class="cls-1" d="M59.36.63a57.73,57.73,0,0,1,31.72,4.2c18.73,8.13,24.73,20.47,31.5,39,3.1,17.89,1.86,40.26.9,59.52-.67,13.65,8.86,27.25,2.08,39.56-6.32,11.48-16,18.57-28.56,22.15a108.3,108.3,0,0,1-55.74,1.11C24,162.06,12.6,151.3,6.45,134.8a8.89,8.89,0,0,1-.3-1.81c0-2.25,0-4.5,0-6.75.5.58,1.23,1.08,1.45,1.75,2.28,6.93,5.58,13.41,10.66,18.55,9.59,9.69,21.94,13.74,35.19,14.29,14.17.59,28.31.66,42.17-4s23.4-13.76,28-27.27c2.82-8.35-6.47-17.36-6.06-26.16a223.09,223.09,0,0,0-1.35-34.85c-1.75-15.59,4-30.12-5.83-42.65C102.68,16.05,93,9,80.78,6,69.26,3.27,57.6,5,46.09,8.58a43.78,43.78,0,0,1,5-2.92C53.77,4.5,56.59,1.63,59.36.63Z"/><path class="cls-2" d="M6.19,126.24c0,2.25,0,4.5,0,6.75-1.58-7.28-3.75-14.5-4.62-21.87C-.51,93.72-1,76.26,3.21,59c4.4-17.94,17.42-31.91,31.88-43.9C36.71,13.8,54.86.84,59.36.63c-2.77,1-5.59,3.87-8.29,5a43.78,43.78,0,0,0-5,2.92h0c-3.8-.2-1.83,1.14-3.86,4.47-7.11,5-13.72,10.61-18.72,17.76-5.76,8.24-15,15.33-17.32,25.12a187.29,187.29,0,0,0-3,18.76c-1.91,14.84-.31,29.53,2.17,44.17-.63,2.56-2.06,5.21.82,7.38Z"/><path class="cls-3" d="M5.37,118.86C2.89,104.22,1.29,89.53,3.2,74.69a187.29,187.29,0,0,1,3-18.76C8.5,46.14,17.74,39.05,23.5,30.81c5-7.15,11.61-12.76,18.72-17.76,3-1.49.91-3,3.86-4.47h0C57.6,5,69.26,3.27,80.78,6c12.18,2.93,21.9,10,29.6,19.83,9.83,12.53,4.08,27.06,5.83,42.65a223.09,223.09,0,0,1,1.35,34.85c-.41,8.8,8.88,17.81,6.06,26.16-4.56,13.51-14,22.56-28,27.27s-28,4.62-42.17,4c-13.25-.55-25.6-4.6-35.19-14.29C13.22,141.4,9.92,134.92,7.64,128c-.22-.67-.95-1.17-1.45-1.75h0C5.92,123.78,5.64,121.32,5.37,118.86Zm109.4-7.29-2.21-3c0-1.18-.15-2.37-.16-3.55,0-3.59,0-7.18,0-10.67A23.93,23.93,0,0,0,114,90.83a9.32,9.32,0,0,0,0-2.94c-.34-6.4-.53-12.82-1.13-19.21a83.39,83.39,0,0,0-2.21-13A60.5,60.5,0,0,0,106.63,45c-2.17-4.55-4-9.52-7.23-13.25-8.5-9.89-18.75-16.17-32.68-16.63-9.08-.3-12.8,1.87-21,5.48A61.18,61.18,0,0,0,30.85,30c-2.61,2.23-3.53,6.37-7.19,8a2.73,2.73,0,0,0-1.08,1.87c-.59,3.7-10.23,3.91-8.8,8.33-3.73,4.69-4.41,10.35-5,16-.89,8.5-1.81,17-2.51,25.51-.12,1.41.83,2.92,1.4,4.72a61.26,61.26,0,0,0,0,7c.44,4.07.52,8.36,2,12.09,3.59,9.25,8.48,17.77,17.14,23.44,1.84,1.2,3.34,3.52,5.26,3.88,5.13,1,10.42,1.08,15.62,1.71A22,22,0,0,1,52.09,144c-.26,2.71,1.82,2.37,3.19,2.07,1.9-.42,4.91,1.84,5.54-2,2.83-1,5.64-2.79,8.52-2.92,10.46-.45,20.19-2.73,28.29-9.71,4.51-3.88,8.62-8.15,10.51-14,2.55-.89,5.32-1.42,7.6-2.78C117.53,113.56,117.93,111.72,114.77,111.57ZM80.3,156.8l.12-1.08a10.18,10.18,0,0,0-7.52,0l0,1.12Zm12.84-14.53L93,143.35h7.57l0-1.08Z"/><path class="cls-1" d="M46.08,8.58c-2.95,1.49-.9,3-3.86,4.47C44.25,9.72,42.28,8.38,46.08,8.58Z"/><path class="cls-1" d="M5.37,118.86c.27,2.46.55,4.92.82,7.38C3.31,124.07,4.74,121.42,5.37,118.86Z"/><path class="cls-4" d="M52.09,144a22,22,0,0,0-4.38-1.49c-5.2-.63-10.49-.74-15.62-1.71-1.92-.36-3.42-2.68-5.26-3.88-8.66-5.67-13.55-14.19-17.14-23.44-1.45-3.73-1.53-8-2-12.09a61.26,61.26,0,0,1,0-7c-.57-1.8-1.52-3.31-1.4-4.72.7-8.52,1.62-17,2.51-25.51.59-5.66,1.27-11.32,5-16-1.43-4.42,8.21-4.63,8.8-8.33A2.73,2.73,0,0,1,23.66,38c3.66-1.65,4.58-5.79,7.19-8a61.18,61.18,0,0,1,14.87-9.4c8.2-3.61,11.92-5.78,21-5.48,13.93.46,24.18,6.74,32.68,16.63,3.21,3.73,5.06,8.7,7.23,13.25a60.5,60.5,0,0,1,4.06,10.68,83.39,83.39,0,0,1,2.21,13c.6,6.39.79,12.81,1.13,19.21a9.32,9.32,0,0,1,0,2.94,23.93,23.93,0,0,1-1.59,3.48c0,3.49,0,7.08,0,10.67,0,1.18.11,2.37.16,3.55a34.83,34.83,0,0,0-5.84-.28c-3,.36-6,1.12-9,1.72l-2.9,1.83c.85,1.33,1.45,3.52,2.58,3.84a86.36,86.36,0,0,0,10.69,1.78c-1.89,5.88-6,10.15-10.51,14-8.1,7-17.83,9.26-28.29,9.71-2.88.13-5.69,1.9-8.52,2.92Zm-1.87-41.66s.05,0,.06,0c1-.45,2.88-.83,2.92-1.35.34-4.36.35-8.74.45-13.11-.1-1.1-.2-2.2-.32-3.3a11.94,11.94,0,0,0-10.21-9.89c-4.71-.85-8,1.26-10.65,5-4.49,6.35-4,13.28-1.67,20,2,5.63,6.54,8.48,11.48,8,1.33-.12,2.56-1.3,3.83-2l2.1-.91C50.5,105.66,50.63,105.5,50.22,102.38ZM58.4,115.9c6.07,4.23,12.22,3.48,18.41.28l1.25-2.25c1.76-1.71,3.92-3.16,5.16-5.18,1.51-2.47.25-4.28-2.72-4.33q-13.05-.19-26.09-.12c-2.9,0-4.12,1.81-2.83,4.37a46.18,46.18,0,0,0,4.22,5.94Zm47.45-25.24c-.21-1.58-.44-4.28-.94-6.93-.8-4.19-5.14-8.47-9-9.13a11.22,11.22,0,0,0-12.15,5.53A20.71,20.71,0,0,0,81.79,97.7c2.65,8.06,8.85,11.69,15.71,9.28C102.2,105.32,105.82,98.74,105.85,90.66ZM28.58,118c3.31-.79,6.23-1.21,8.89-2.28,1.13-.45,2.52-2.38,2.36-3.42-.21-1.36-1.73-3.42-2.88-3.56-4.71-.55-9.54-1.71-14.22-.08a6.63,6.63,0,0,0-3.54,3.23c-.34.77.8,2.9,1.79,3.41A55.62,55.62,0,0,0,28.58,118Zm1.7-48c4.73-3.43,9.93-4.23,15.91-3.08C41.66,62.4,33.36,64,30.28,70Zm74.5-.18C102.42,64,93.42,62.25,89.4,66.58c2.53,0,5.24-.41,7.75.12S102.2,68.71,104.78,69.8Z"/><path class="cls-5" d="M97.77,110c3-.6,5.94-1.36,9-1.72a34.83,34.83,0,0,1,5.84.28l2.21,3c.08,1.6,0,2.74-2.22,3s-4.28,1.22-6.44,1.81a2.87,2.87,0,0,1-1.76,0c-2-.87-4-1.88-6.58-3.14Z"/><path class="cls-6" d="M97.77,110v3.25c2.62,1.26,4.57,2.27,6.58,3.14a2.87,2.87,0,0,0,1.76,0c2.16-.59,4.26-1.59,6.44-1.81s2.3-1.35,2.22-3c3.16.16,2.76,2,1,3.08-2.28,1.36-5,1.89-7.6,2.78a86.36,86.36,0,0,1-10.69-1.78c-1.13-.32-1.73-2.51-2.58-3.84Z"/><path class="cls-7" d="M52.09,144l8.73,0c-.63,3.87-3.64,1.61-5.54,2C53.91,146.41,51.83,146.75,52.09,144Z"/><path class="cls-7" d="M80.3,156.8H72.87l0-1.12a10.18,10.18,0,0,1,7.52,0Z"/><path class="cls-7" d="M93.14,142.27h7.39l0,1.08H93Z"/><path class="cls-8" d="M105.85,90.66c0,8.08-3.65,14.66-8.35,16.32-6.86,2.41-13.06-1.22-15.71-9.28a20.71,20.71,0,0,1,1.92-17.57A11.22,11.22,0,0,1,95.86,74.6c3.91.66,8.25,4.94,9,9.13C105.41,86.38,105.64,89.08,105.85,90.66Zm-17.56-8a7.22,7.22,0,0,1,2.12.69,33.3,33.3,0,0,1,2.73,2.46c-1.06.71-2,1.77-3.2,2a22,22,0,0,1-4.82.08c-1.36,5.17-1,9.93,2.24,14.11s8.17,4.16,11.57,0c4.13-5,3.93-14.3-.43-19.1C95.58,79.78,92.23,79.6,88.29,82.66Z"/><path class="cls-9" d="M48.21,104.76l-2.1.91c-8-.28-13-9.79-9.81-16.57l7.93-3L40.14,82c2.71-2.54,5.78-1.76,8.89,0l3.83,7.44a20,20,0,0,1-2.59,13l-.05,0Z"/><path class="cls-10" d="M49,81.93c-3.11-1.71-6.18-2.49-8.89,0l4.09,4.13-7.93,3c-3.16,6.78,1.86,16.29,9.81,16.57-1.27.69-2.5,1.87-3.83,2-4.94.47-9.52-2.38-11.48-8C28.46,92.92,28,86,32.47,79.64c2.61-3.69,5.94-5.8,10.65-5,.6.46,1.24.88,1.79,1.39C46.7,77.73,50.33,78.1,49,81.93Z"/><path class="cls-9" d="M55.8,114.61a46.18,46.18,0,0,1-4.22-5.94c-1.29-2.56-.07-4.35,2.83-4.37q13.05-.08,26.09.12c3,0,4.23,1.86,2.72,4.33-1.24,2-3.4,3.47-5.16,5.18-2.5-2.86-5.71-2.73-9-2.19a7,7,0,0,1-2.77.21A10.28,10.28,0,0,0,55.8,114.61Z"/><path class="cls-6" d="M28.58,118a55.62,55.62,0,0,1-7.6-2.7c-1-.51-2.13-2.64-1.79-3.41a6.63,6.63,0,0,1,3.54-3.23c4.68-1.63,9.51-.47,14.22.08,1.15.14,2.67,2.2,2.88,3.56.16,1-1.23,3-2.36,3.42C34.81,116.78,31.89,117.2,28.58,118Z"/><path class="cls-6" d="M55.8,114.61A10.28,10.28,0,0,1,66.25,112a7,7,0,0,0,2.77-.21c3.33-.54,6.54-.67,9,2.19l-1.25,2.25c-1.94.41-3.91,1.23-5.83,1.13-4.2-.22-8.39-.91-12.58-1.41Z"/><path class="cls-7" d="M30.28,70c3.08-6,11.38-7.58,15.91-3.08C40.21,65.75,35,66.55,30.28,70Z"/><path class="cls-8" d="M49,81.93c1.3-3.83-2.33-4.2-4.12-5.85-.55-.51-1.19-.93-1.79-1.39a11.94,11.94,0,0,1,10.21,9.89c.12,1.1.22,2.2.32,3.3l-.79,1.49Z"/><path class="cls-7" d="M104.78,69.8c-2.58-1.09-5-2.55-7.63-3.1s-5.22-.12-7.75-.12C93.42,62.25,102.42,64,104.78,69.8Z"/><path class="cls-11" d="M58.4,115.9c4.19.5,8.38,1.19,12.58,1.41,1.92.1,3.89-.72,5.83-1.13C70.62,119.38,64.47,120.13,58.4,115.9Z"/><path class="cls-12" d="M52.86,89.37l.79-1.49c-.1,4.37-.11,8.75-.45,13.11,0,.52-1.9.9-2.93,1.34A20,20,0,0,0,52.86,89.37Z"/><path class="cls-12" d="M48.21,104.76l2-2.38C50.63,105.5,50.5,105.66,48.21,104.76Z"/><path class="cls-9" d="M88.29,82.66c3.94-3.06,7.29-2.88,10.21.34,4.36,4.8,4.56,14.09.43,19.1-3.4,4.11-8.33,4.18-11.57,0s-3.6-8.94-2.24-14.11a22,22,0,0,0,4.82-.08c1.16-.28,2.14-1.34,3.2-2a33.3,33.3,0,0,0-2.73-2.46A7.22,7.22,0,0,0,88.29,82.66Z"/></g></g></svg>