<svg xmlns="http://www.w3.org/2000/svg" viewBox="0 0 137.8 158.53"><defs><style>.cls-1{fill:#1c1b1a;}.cls-2{fill:#d0944d;}.cls-3{fill:#d0954f;}.cls-4{fill:#cb9a5d;}.cls-5{fill:#e9b16b;}.cls-6{fill:#e6aa5b;}.cls-7{fill:#f4f1ea;}.cls-8{fill:#deab6c;}.cls-9{fill:#c2853f;}.cls-10{fill:#f9f7ef;}</style></defs><g id="Layer_2" data-name="Layer 2"><g id="Layer_1-2" data-name="Layer 1"><path class="cls-1" d="M133.69,55.3l4,1.14c-1.56,2.63,2.53,6.57-2.5,8.42A7.6,7.6,0,0,0,133.91,67c-1.36,6.4-2.63,12.81-3.92,19.23l-8,11.87a23.34,23.34,0,0,1-15,4c-16.16-1.34-26.14-10.58-32.42-24.77a45.38,45.38,0,0,0-3.07-6.26c-1.68-2.59-3.9-2.58-5.51.08a59.83,59.83,0,0,0-3.17,7C59.21,85.07,54.8,91.4,48.59,96.3l.28.16-.29-.14L45.72,98c-3.61,1.16-7.15,2.62-10.84,3.42-10.59,2.32-18.3-.74-24-9.17L8.26,88.38a.75.75,0,0,0-.16-.63L8,87l-.43-.81L5.89,84.12c-.18-1.26-.35-2.52-.53-3.79-.35-2.91-.54-5.85-1.09-8.72a63.93,63.93,0,0,0-2-6.72c-.72-1-1.85-2-2.07-3.07a26.31,26.31,0,0,1-.1-5.32l3.65-1.32L13.66,54c17.18-1.1,34.12-.07,50.75,4.85,2.69.79,5.87.51,8.72.07,10.41-1.63,20.78-3.54,31.17-5.35l15.15-.4,5.48,1.23.76,0ZM22.36,61.65,21,61.17C16.9,68.25,12.79,75.3,8.85,82.45c-.31.57.57,1.8.9,2.73.79-.48,2-.76,2.32-1.46,3.29-6.44,6.47-13,9.63-19.48A13.46,13.46,0,0,0,22.36,61.65ZM81.41,86.48C88.8,73.73,93.19,63.65,92.22,60.73c-4.45,7.59-8.69,14.7-12.7,21.93C79.2,83.24,80.5,84.72,81.41,86.48Z"/><path class="cls-2" d="M130,86.21c1.29-6.42,2.56-12.83,3.92-19.23a7.6,7.6,0,0,1,1.28-2.12c-.18,14.11.14,28.25-.71,42.32-.58,9.55-4.4,18.78-9.43,27.2-8.08,13.48-19.6,20.41-34.48,22.51-11.36,1.6-23,1.34-34.51,1.63-2.89.08-5.81-.9-8.71-1.4-.6-2.15-1.93-2.68-4.2-3-3.3-.5-6.48-2-9.61-3.31-3.9-1.64-7.7-3.52-11.54-5.29l-.66-.44c.12-3.76-2-5.35-5.46-5.59l-.29-.69c-.65-1.67-1.38-3.32-1.95-5-1.35-4-2.63-8-3.94-12.05.8,1.34,1.67,2.65,2.39,4,3.64,7,8.56,12.89,15.3,17,9.76,5.9,20.69,8.07,31.91,8.49a120.44,120.44,0,0,0,18.7-.75c6.62-.8,13.37-1.74,19.65-3.85,12.45-4.19,25.4-16.94,28.86-31.79,1.71-7.33,2.51-14.88,3.55-22.36A39.72,39.72,0,0,0,130,86.21Z"/><path class="cls-3" d="M133.69,55.3l-8-.89c1.83-.76,2.69-1.81,1.74-3.92-1.8-4-4.51-8-4.84-12.16-.39-4.91-2.44-8.78-4.5-12.82C111,11.53,99.84,11.87,85,7,71,2.46,60.86,2.3,47.19,8.94,44.92,10,42.6,11,40.3,12.09l2.94-4.23C49.75,3.65,52.93,1.09,60.56.37c17.3-1.63,33.27,2,46.8,13.5,10.6,9,17.2,10.73,21.63,23.68C131,43.33,132.15,49.38,133.69,55.3Z"/><path class="cls-4" d="M9.7,121.71c1.31,4,2.59,8,3.94,12.06.57,1.69,1.3,3.34,1.95,5-5.4-6.06-8.1-13.5-10-21.12C1.56,101.53,1.36,85,1.71,68.52a26.76,26.76,0,0,1,.55-3.63,63.93,63.93,0,0,1,2,6.72c.55,2.87.74,5.81,1.09,8.72-.53.68-1.53,1.38-1.5,2A141.6,141.6,0,0,0,5,98.2C6.27,106.09,8.11,113.88,9.7,121.71Z"/><path class="cls-4" d="M43.24,7.86,40.3,12.09h0c-2.77.17-4.65,1.24-4.44,4.41-.24.06-.54,0-.71.18-10.26,8.57-20.81,9.67-25.39,22C8,43.38,7,48.33,5.52,53.58l4.15.19,4,.22L3.74,55.18c.86-9.94,4.34-19.09,8.76-27.89,5.41-10.78,16.77-10,26.66-17C40.44,9.33,41.88,8.65,43.24,7.86Z"/><path class="cls-4" d="M22,145.5c3.84,1.77,7.64,3.65,11.54,5.29,3.13,1.31,6.31,2.81,9.61,3.31,2.27.34,3.6.87,4.2,3C37.85,155.53,29.05,152.41,22,145.5Z"/><path class="cls-4" d="M15.88,139.47c3.48.24,5.58,1.83,5.46,5.59Z"/><path class="cls-5" d="M13.66,54l-4-.22c.5-2.21,1.47-4.44,1.39-6.64-.12-3.49,1.08-5.85,4-7-.27-1.32-1-2.71-.6-3.28,3.85-5.42,9.76-2.18,15.28-6.48a6.13,6.13,0,0,0,1.65-3,17.86,17.86,0,0,0,.41-3.49c4.15,1.52,4.12,1.5,7.39-1.4a9.25,9.25,0,0,1,2.54-1.45c4.48-1.9,8.84-4.19,13.49-5.5,5.7-1.6,7.64-2.34,13.58-.92,4.54,1.08,9,2.25,13.6,3.31,1.17.27,2.77-.18,3.55.46,3.51,2.89,6.68,6.2,11.34,7.36.46.11.7,1.15,1,1.77a35,35,0,0,0,1.89,3.39c1.28,1.77,3.16-6.76,4-4.81,3.61,8.4,6.93,16.92,10.71,26.3,1.76,0,4.79-.14,7.8.09.79.06,1.49,1.22,2.23,1.88l-5.48-1.23-15.15.4c-10.39,1.81-20.76,3.72-31.17,5.35-2.85.44-6,.72-8.72-.07C47.78,53.92,30.84,52.89,13.66,54ZM48,44.25c-5-4.71-14.55-2.93-16.49,3.12C36.53,43.7,41.8,42.54,48,44.25Zm58.1,2.61c-3.34-5.91-11.72-7.26-16.3-2.6C95.84,42.48,101.08,43.77,106.05,46.86Z"/><path class="cls-5" d="M62.86,78.16a59.83,59.83,0,0,1,3.17-7c1.61-2.66,3.83-2.67,5.51-.08a45.38,45.38,0,0,1,3.07,6.26c6.28,14.19,16.26,23.43,32.42,24.77a23.34,23.34,0,0,0,15-4c-.9,3.47-3.44,4.2-6.66,4.59-2.61.32-5.65,1-5.24,5a4.77,4.77,0,0,1-1.27,2.85c-1.28,1.64-3,2.95-4.1,4.72-1.57,2.66-9.6,8.87-10.44,9.25-5.79,2.54-11.08,6.13-17.88,6.41-5,.2-9.86,3-14.74,2.88-9.09-.26-18.44-.05-27-3.88S18.45,121,15.51,111.24c-.15-.49-.8-.8-1.13-1.26a9.12,9.12,0,0,1-1.68-2.7c-1.19-4.8-2.19-9.65-3.29-14.48-.34-1.48-.76-3-1.15-4.42l2.64,3.91c5.68,8.43,13.39,11.49,24,9.17,3.69-.8,7.23-2.26,10.84-3.42l2.86-1.72.29.14-.28-.16a11.93,11.93,0,0,0,2.08-.07c3.94-.87,5.06-4.81,7.1-7.39C60.11,85.86,63.44,82.77,62.86,78.16ZM68.8,99.75v-.07c-4.17,0-8.35-.08-12.51,0-3.83.1-4.75,1.82-3,5.26,3.29,6.51,8.89,9.32,15.86,9.25a16.43,16.43,0,0,0,15.36-9.53c1.53-3,.55-4.8-2.81-4.91C77.39,99.64,73.09,99.75,68.8,99.75Z"/><path class="cls-6" d="M8.26,88.38c.39,1.47.81,2.94,1.15,4.42,1.1,4.83,2.1,9.68,3.29,14.48a9.12,9.12,0,0,0,1.68,2.7c.33.46,1,.77,1.13,1.26C18.45,121,26,126.05,34.61,129.89s18,3.62,27,3.88c4.88.14,9.79-2.68,14.74-2.88,6.8-.28,12.09-3.87,17.88-6.41.84-.38,8.87-6.59,10.44-9.25,1.05-1.77,2.82-3.08,4.1-4.72a4.77,4.77,0,0,0,1.27-2.85c-.41-4,2.63-4.67,5.24-5,3.22-.39,5.76-1.12,6.66-4.59l8-11.87a39.72,39.72,0,0,1,.07,6.26c-1,7.48-1.84,15-3.55,22.36-3.46,14.85-16.41,27.6-28.86,31.79-6.28,2.11-13,3-19.65,3.85a120.44,120.44,0,0,1-18.7.75c-11.22-.42-22.15-2.59-31.91-8.49-6.74-4.08-11.66-10-15.3-17-.72-1.39-1.59-2.7-2.39-4C8.11,113.88,6.27,106.09,5,98.2A141.6,141.6,0,0,1,3.86,82.36c0-.65,1-1.35,1.5-2,.18,1.27.35,2.53.53,3.79-1.4,2.52,1,2.69,2.21,3.63A.75.75,0,0,1,8.26,88.38ZM29.91,140l-.11,1.08h6.29V140Z"/><path class="cls-6" d="M124.93,54.39c-.74-.66-1.44-1.82-2.23-1.88-3-.23-6-.09-7.8-.09-3.78-9.38-7.1-17.9-10.71-26.3-.83-1.95-2.71,6.58-4,4.81a35,35,0,0,1-1.89-3.39c-.34-.62-.58-1.66-1-1.77-4.66-1.16-7.83-4.47-11.34-7.36-.78-.64-2.38-.19-3.55-.46-4.55-1.06-9.06-2.23-13.6-3.31-5.94-1.42-7.88-.68-13.58.92-4.65,1.31-9,3.6-13.49,5.5a9.25,9.25,0,0,0-2.54,1.45c-3.27,2.9-3.24,2.92-7.39,1.4a17.86,17.86,0,0,1-.41,3.49,6.13,6.13,0,0,1-1.65,3c-5.52,4.3-11.43,1.06-15.28,6.48-.41.57.33,2,.6,3.28-2.9,1.17-4.1,3.53-4,7,.08,2.2-.89,4.43-1.39,6.64l-4.15-.19C7,48.33,8,43.38,9.75,38.69c4.58-12.34,15.13-13.44,25.39-22,.17-.14.47-.12.71-.18l4.44-4.41h0C42.6,11,44.92,10,47.19,8.94,60.86,2.3,71,2.46,85,7c14.82,4.84,26,4.5,33.07,18.48,2.06,4,4.11,7.91,4.5,12.82.33,4.16,3,8.15,4.84,12.16.95,2.11.09,3.16-1.74,3.92Z"/><path class="cls-7" d="M22.36,61.65a13.46,13.46,0,0,1-.66,2.59c-3.16,6.52-6.34,13-9.63,19.48-.36.7-1.53,1-2.32,1.46-.33-.93-1.21-2.16-.9-2.73,3.94-7.15,8-14.2,12.12-21.28Z"/><path class="cls-7" d="M81.41,86.48c-.91-1.76-2.21-3.24-1.89-3.82,4-7.23,8.25-14.34,12.7-21.93C93.19,63.65,88.8,73.73,81.41,86.48Z"/><path class="cls-8" d="M62.86,78.16c.58,4.61-2.75,7.7-5.09,10.68-2,2.58-3.16,6.52-7.1,7.39a11.93,11.93,0,0,1-2.08.07C54.8,91.4,59.21,85.07,62.86,78.16Z"/><path class="cls-6" d="M104.3,53.56l15.15-.4Z"/><path class="cls-5" d="M8.1,87.75c-1.17-.94-3.61-1.11-2.21-3.63L7.54,86.2,8,87Z"/><path class="cls-8" d="M48.58,96.32,45.72,98Z"/><path class="cls-6" d="M8,87l-.43-.81Z"/><path class="cls-3" d="M40.29,12.09,35.85,16.5C35.64,13.33,37.52,12.26,40.29,12.09Z"/><path class="cls-9" d="M48,44.25c-6.15-1.71-11.42-.55-16.49,3.12C33.4,41.32,42.91,39.54,48,44.25Z"/><path class="cls-9" d="M106.05,46.86c-5-3.09-10.21-4.38-16.3-2.6C94.33,39.6,102.71,41,106.05,46.86Z"/><path class="cls-10" d="M68.8,99.75c4.29,0,8.59-.11,12.88,0,3.36.11,4.34,1.88,2.81,4.91a16.43,16.43,0,0,1-15.36,9.53c-7,.07-12.57-2.74-15.86-9.25-1.73-3.44-.81-5.16,3-5.26,4.16-.11,8.34,0,12.51,0Z"/><path class="cls-9" d="M29.91,140h6.17v1.08H29.8Z"/></g></g></svg>