<svg xmlns="http://www.w3.org/2000/svg" viewBox="0 0 134.6 157.34"><defs><style>.cls-1{fill:#d0954e;}.cls-2{fill:#d0954f;}.cls-3{fill:#cb9a5d;}.cls-4{fill:#e7aa5c;}.cls-5{fill:#e9b16b;}.cls-6{fill:#f86f82;}.cls-7{fill:#eab16b;}.cls-8{fill:#c2853f;}.cls-9{fill:#582d0a;}.cls-10{fill:#efbc7d;}.cls-11{fill:#f4f1ea;}.cls-12{fill:#4a2b11;}</style></defs><g id="Layer_2" data-name="Layer 2"><g id="Layer_1-2" data-name="Layer 1"><path class="cls-1" d="M102.86,15.18c11.26,8.89,20.68,8,25.08,21.23,7.06,21.26,7.79,43.12,5.49,65.21-.94,9.09-2.78,17.93-6.7,26.24-6.47,13.72-17.51,21.92-32,25.36-20.31,4.82-28.67,6.43-48.6-.8-9.44-3.43-17.2-9.33-22.26-18.29.3-2.48-.1-4.58-2.94-5.31a.22.22,0,0,1-.09-.35c-.22-1.39-.43-2.78-.68-4.16q-.68-3.68-1.37-7.34c.71,1,1.5,2,2.1,3.11,2.11,3.82,3.65,8.09,6.33,11.45a44.33,44.33,0,0,0,27.24,16.28c16.54,3,21.2,1.92,37.57-2.37,13.25-3.47,23.82-10.81,29.59-23.66a80.25,80.25,0,0,0,6.9-32.08c.13-11.5-.61-23-1.41-34.51-.75-11-8.1-17.1-12.76-26.8-4.75-9.86-12.11-9-21.21-15.35l-1.46-.77-3-1.49c2.4-1.09,5.2-2.8,6.87.46S99.89,14.89,102.86,15.18Z"/><path class="cls-2" d="M102.86,15.18c-3-.29-5.6-.68-7.27-3.94s-4.47-1.55-6.87-.46c-2.86-1-5.73-2-8.56-3.16C70.78,3.91,64-.09,54.41,1.62,47.94,2.78,41.85,6,35.58,8.28c0-.77,0-1.54-.07-2.32l0,0,.81-.69C46.31-1.41,54.42-.1,66.36.55c13,.71,25,4.38,35.11,13A12.94,12.94,0,0,1,102.86,15.18Z"/><path class="cls-3" d="M35.51,6c0,.78.05,1.55.07,2.32h0l-4.42,3h0l-1.5,1.44c-1.26,1.48-2.54,3-3.78,4.44-3.63,4.38-8-.64-10.71,4.23A97.4,97.4,0,0,0,2.34,72.54c.2,7.59.49,15.18.74,22.76l-.21,12.91C2.11,103.26,1,98.33.65,93.35-.85,71.37-.4,49.61,9,29,14.41,17.14,21.77,15.7,32.32,7.75A25.38,25.38,0,0,1,35.51,6Z"/><path class="cls-3" d="M18.79,117q.69,3.66,1.37,7.34c.25,1.38.46,2.77.68,4.16-1.9-5.8-15.81-12.59-17.72-18.38.48.81,12.87,2.69,13.46,3.4a21.23,21.23,0,0,0,2.19,2Z"/><path class="cls-1" d="M18.77,115.53a21.23,21.23,0,0,1-2.19-2c-.59-.71-13-2.59-13.46-3.4-.08-.63-.17-1.25-.25-1.88L3.08,95.3C4.31,101.71,17.54,109.12,18.77,115.53Z"/><path class="cls-3" d="M20.93,128.82c2.84.73,3.24,2.83,2.94,5.31Z"/><path class="cls-3" d="M36.3,5.32,35.49,6Z"/><path class="cls-4" d="M18.77,115.53C17.54,109.12,4.31,101.71,3.08,95.3c-.25-7.58-.54-15.17-.74-22.76A97.4,97.4,0,0,1,15.17,21.36c2.74-4.87,7.08.15,10.71-4.23,1.24-1.49,2.52-3,3.78-4.44l1.5-1.44h0l4.42-3h0C41.85,6,47.94,2.78,54.41,1.62,64-.09,70.78,3.91,80.16,7.62c2.83,1.11,5.7,2.11,8.56,3.16l3,1.49,1.46.77c9.1,6.36,16.46,5.49,21.21,15.35,4.66,9.7,12,15.81,12.76,26.8.8,11.48,1.54,23,1.41,34.51a80.25,80.25,0,0,1-6.9,32.08C115.85,134.63,105.28,142,92,145.44c-16.37,4.29-21,5.38-37.57,2.37a44.33,44.33,0,0,1-27.24-16.28c-2.68-3.36-4.22-7.63-6.33-11.45-.6-1.09-1.39-2.08-2.1-3.11C18.78,116.49,18.78,116,18.77,115.53ZM115.35,82l-1.45-1.47c-.25-7.6-.2-15.22-.85-22.79-.51-5.87-.58-12.37-3.23-17.3-2.75-5.11-5.2-7.32-9.47-11.74-2.43-2.51-3.61,2.69-6.19.43-4.93-4.32-10.47-8-15.77-11.87A3.18,3.18,0,0,0,77,16.75c-3.7-.52-7.4-1.38-11.11-1.45-11-.22-19-4.67-28.79,1.72-7.05,4.6-14.35-.12-18.21,7.94-1.35,2.83-3.24,5.39-4.62,8.21a84.79,84.79,0,0,0-3.81,9.07c-1,2.69-.78,6.28-2.54,8a6.12,6.12,0,0,0-1.92,5c0,5.6-.27,11.22.1,16.79.21,3.12-2.22,7.25,2.54,9.26.13.06-.48,1.47-.48,2.25,0,4.17-.63,8.52.38,12.44.67,2.61,2.13,5,1.92,7.91-.14,1.91,0,3.85,0,5.21,1.88.9,15.85,2.2,16.23,3.14A24.86,24.86,0,0,0,38.5,125.17c4.35,2.29,8.55,5,13.8,5.27,4.14.25,8.22,1.37,12.32,2.1-.27,3,2,2.18,3.46,2.11s-8,.14-8.16-3.12c.44-.41.84-1.11,1.34-1.19,4.08-.66,8.18-1.69,12.26-1.68,8.07,0,14.75-3.78,21.25-7.51,8.23-4.72,12.46-13,15.84-21.55.13-.34.16-.72.28-1.07q1.5-4.56,3-9.13C119.55,86,119.83,84.53,115.35,82ZM80.13,144.24c-2.31-2.28-4.86-1.73-7.4-1.14l-.07,1.14ZM100.4,131v-1.06h-7V131Z"/><path class="cls-2" d="M93.14,13l-1.46-.77Z"/><path class="cls-2" d="M35.58,8.28l-4.42,3Z"/><path class="cls-2" d="M31.16,11.25l-1.5,1.44Z"/><path class="cls-5" d="M113.9,89.4q-1.52,4.57-3,9.13c-.12.35-.15.73-.28,1.07-3.38,8.59-7.61,16.83-15.84,21.55-6.5,3.73-13.18,7.54-21.25,7.51-4.08,0-8.18,1-12.26,1.68-.5.08-.9.78-1.34,1.19-2.43,0,7.14,1,4.7,1-4.1-.73-8.18-1.85-12.32-2.1-5.25-.31-9.45-3-13.8-5.27a24.86,24.86,0,0,1-11.81-12.89c-.38-.94-14.35-2.24-16.23-3.14,0-1.36-.11-3.3,0-5.21.21-2.9-1.25-5.3-1.92-7.91-1-3.92-.38-8.27-.38-12.44,0-.78.61-2.19.48-2.25-4.76-2-2.33-6.14-2.54-9.26C5.76,66.5,6,60.88,6,55.28a6.12,6.12,0,0,1,1.92-5c1.76-1.77,1.59-5.36,2.54-8a84.79,84.79,0,0,1,3.81-9.07c1.38-2.82,3.27-5.38,4.62-8.21C22.78,16.9,30.08,21.62,37.13,17c9.8-6.39,17.84-1.94,28.79-1.72,3.71.07,7.41.93,11.11,1.45a3.18,3.18,0,0,1,1.36.49c5.3,3.9,10.84,7.55,15.77,11.87,2.58,2.26,3.76-2.94,6.19-.43,4.27,4.42,6.72,6.63,9.47,11.74,2.65,4.93,2.72,11.43,3.23,17.3.65,7.57.6,15.19.85,22.79l-9.3-1.68c-1-3-1.51-6.36-3.09-9-2.56-4.33-6.68-5.11-10.63-2-3,2.39-5.33,5.64-7.82,8.62-.37.45,0,1.49,0,2.26.71-.26,1.66-.31,2.08-.81,1.43-1.67,2.53-3.62,4-5.25,5.29-5.89,9.57-5,12.34,2.41a37.89,37.89,0,0,0,2.08,4.06L99.1,84.19c.32,3.38,2.5,4.91,5.57,5.13S110.82,89.39,113.9,89.4ZM78.41,94.54h0l.76-.74,0,0,.75-1.55.55-.71c3.41-.81,2.48-3.51,2.29-5.68-.23-2.51-2.25-2.42-4.18-2.41-6.88,0-13.76-.11-20.64.08a72.26,72.26,0,0,0-8.76,1.27c.69,2,1.09,3.23,1.56,4.45,1.69,4.42,4,6.59,7.08,6.69l5.67,1.6a12.45,12.45,0,0,0,12.74-2.24l0,0,1.32,0ZM25.68,90l.15-.59c1.6,0,3.32.38,4.76-.09a13.88,13.88,0,0,0,4.75-2.93c.37-.34-.09-2.15-.67-2.89-3.25-4.17-14.5-4.16-18,.4-1.33,1.75-1.18,3.29,1,4C20.36,88.69,23,89.26,25.68,90ZM52.46,78.19c-1.92-2.62-3.24-4.69-4.84-6.53C44.94,68.57,42,65.4,37.4,66.3s-6,5-7.48,8.84a1.73,1.73,0,0,0-.2.71c.1,1,.24,2,.37,3a22.73,22.73,0,0,0,2.13-2.27A11.06,11.06,0,0,0,33,74.47c2.83-6.67,6.61-7.48,11.6-2.31,1.7,1.75,2.93,3.93,4.49,5.82a3,3,0,0,0,1.81.79C51.31,78.84,51.79,78.46,52.46,78.19ZM47.58,51.28c-4.19-2.79-12.31-1-13.39,3Zm53.18,2.48c-1.83-3.95-9.65-5.28-12.4-2.38Z"/><path class="cls-6" d="M113.9,89.4c-3.08,0-6.17.14-9.23-.08s-5.25-1.75-5.57-5.13c5-4,10.58-3.34,16.25-2.21C119.83,84.53,119.55,86,113.9,89.4Z"/><path class="cls-7" d="M115.35,82c-5.67-1.13-11.28-1.83-16.25,2.21l4.44-5.06,1.06-.3,9.3,1.68Z"/><path class="cls-8" d="M80.13,144.24H72.66l.07-1.14C75.27,142.51,77.82,142,80.13,144.24Z"/><path class="cls-8" d="M100.4,131h-7v-1.06h7Z"/><path class="cls-8" d="M64.62,132.54c2.44,0-7.13-1-4.7-1,.16,3.26,9.67,3.06,8.16,3.12S64.35,135.53,64.62,132.54Z"/><path class="cls-9" d="M80.43,91.57l-.55.71-.78.77-2.26.84a39.65,39.65,0,0,0-6.46-2.26,17.15,17.15,0,0,0-6.66.08c-2.32.54-4.45,1.85-6.67,2.83a56.71,56.71,0,0,1-4.37-5.22c-1.6-2.45-.64-4.23,2.36-4.27q12-.17,23.93,0c2.65.05,3.86,1.46,2.56,4.17C81.15,90,80.8,90.8,80.43,91.57Z"/><path class="cls-6" d="M25.68,90c-2.64-.69-5.32-1.26-7.92-2.1-2.22-.71-2.37-2.25-1-4,3.45-4.56,14.7-4.57,18-.4.58.74,1,2.55.67,2.89a13.88,13.88,0,0,1-4.75,2.93c-1.44.47-3.16.09-4.76.09Z"/><path class="cls-9" d="M52.46,78.19c-.67.27-1.15.65-1.57.58A3,3,0,0,1,49.08,78c-1.56-1.89-2.79-4.07-4.49-5.82C39.6,67,35.82,67.8,33,74.47a11.06,11.06,0,0,1-.77,2.07,22.73,22.73,0,0,1-2.13,2.27c-.13-1-.27-2-.37-3a1.73,1.73,0,0,1,.2-.71c1.5-3.8,2.81-7.93,7.48-8.84s7.54,2.27,10.22,5.36C49.22,73.5,50.54,75.57,52.46,78.19Z"/><path class="cls-6" d="M57.05,94.54c2.22-1,4.35-2.29,6.67-2.83a17.15,17.15,0,0,1,6.66-.08,39.65,39.65,0,0,1,6.46,2.26l-.61,1.42,0,0L63.45,97.57,57.78,96Z"/><path class="cls-10" d="M57.05,94.54,57.78,96c-3.08-.1-5.39-2.27-7.08-6.69-.47-1.22-.87-2.47-1.56-4.45a72.26,72.26,0,0,1,8.76-1.27c6.88-.19,13.76,0,20.64-.08,1.93,0,3.95-.1,4.18,2.41.19,2.17,1.12,4.87-2.29,5.68.37-.77.72-1.55,1.1-2.33,1.3-2.71.09-4.12-2.56-4.17q-12-.18-23.93,0c-3,0-4,1.82-2.36,4.27A56.71,56.71,0,0,0,57.05,94.54Z"/><path class="cls-8" d="M47.58,51.28l-13.39,3C35.27,50.32,43.39,48.49,47.58,51.28Z"/><path class="cls-8" d="M100.76,53.76l-12.4-2.38C91.11,48.48,98.93,49.81,100.76,53.76Z"/><path class="cls-8" d="M63.45,97.57l12.74-2.24A12.45,12.45,0,0,1,63.45,97.57Z"/><path class="cls-8" d="M76.23,95.31l.61-1.42,2.26-.84,0,.78,0,0-.76.74h0l-.86.75Z"/><path class="cls-10" d="M79.13,93.83l0-.78.78-.77Z"/><path class="cls-10" d="M78.39,94.55l.76-.74Z"/><path class="cls-10" d="M77.55,95.29l.86-.75Z"/><path class="cls-11" d="M107.22,70.68c0,6.69-3.77,12.15-8.63,13.52-7.08,2-13.48-1-16.23-7.69-2.08-5.08-1.35-10,2-14.57,2.65-3.65,7.24-5.3,12.55-4.58,4,.54,8.53,4.09,9.35,7.57C106.77,67.12,107,69.36,107.22,70.68ZM89.08,64a9.08,9.08,0,0,1,2.19.57,32.15,32.15,0,0,1,2.82,2,12.47,12.47,0,0,1-3.3,1.7,28.26,28.26,0,0,1-5,.07c-1.4,4.29-1,8.23,2.32,11.7a8.16,8.16,0,0,0,11.94,0,11.19,11.19,0,0,0-.44-15.84C96.61,61.65,93.15,61.5,89.08,64Z"/><path class="cls-12" d="M89.08,64c4.07-2.54,7.53-2.39,10.55.28a11.19,11.19,0,0,1,.44,15.84,8.16,8.16,0,0,1-11.94,0c-3.32-3.47-3.72-7.41-2.32-11.7a28.26,28.26,0,0,0,5-.07,12.47,12.47,0,0,0,3.3-1.7,32.15,32.15,0,0,0-2.82-2A9.08,9.08,0,0,0,89.08,64Z"/></g></g></svg>